%FSTAX23Y23*%
%MOMM*%
%SFA1B1*%

%IPPOS*%
%AMD28*
4,1,8,-0.200660,-0.538480,0.200660,-0.538480,0.436880,-0.299720,0.436880,0.299720,0.200660,0.538480,-0.200660,0.538480,-0.436880,0.299720,-0.436880,-0.299720,-0.200660,-0.538480,0.0*
1,1,0.476000,-0.200660,-0.299720*
1,1,0.476000,0.200660,-0.299720*
1,1,0.476000,0.200660,0.299720*
1,1,0.476000,-0.200660,0.299720*
%
%AMD29*
4,1,8,-0.538480,0.200660,-0.538480,-0.200660,-0.299720,-0.436880,0.299720,-0.436880,0.538480,-0.200660,0.538480,0.200660,0.299720,0.436880,-0.299720,0.436880,-0.538480,0.200660,0.0*
1,1,0.476000,-0.299720,0.200660*
1,1,0.476000,-0.299720,-0.200660*
1,1,0.476000,0.299720,-0.200660*
1,1,0.476000,0.299720,0.200660*
%
%AMD34*
4,1,8,-0.937260,0.299720,-0.937260,-0.299720,-0.599440,-0.637540,0.599440,-0.637540,0.937260,-0.299720,0.937260,0.299720,0.599440,0.637540,-0.599440,0.637540,-0.937260,0.299720,0.0*
1,1,0.676000,-0.599440,0.299720*
1,1,0.676000,-0.599440,-0.299720*
1,1,0.676000,0.599440,-0.299720*
1,1,0.676000,0.599440,0.299720*
%
%AMD35*
4,1,8,0.248920,0.637540,-0.248920,0.637540,-0.538480,0.350520,-0.538480,-0.350520,-0.248920,-0.637540,0.248920,-0.637540,0.538480,-0.350520,0.538480,0.350520,0.248920,0.637540,0.0*
1,1,0.576000,0.248920,0.350520*
1,1,0.576000,-0.248920,0.350520*
1,1,0.576000,-0.248920,-0.350520*
1,1,0.576000,0.248920,-0.350520*
%
%AMD44*
4,1,8,0.238760,-0.523240,0.523240,-0.238760,0.520700,0.096520,0.096520,0.520700,-0.238760,0.523240,-0.523240,0.238760,-0.520700,-0.096520,-0.096520,-0.520700,0.238760,-0.523240,0.0*
1,1,0.476000,0.071120,-0.353060*
1,1,0.476000,0.353060,-0.071120*
1,1,0.476000,-0.071120,0.353060*
1,1,0.476000,-0.353060,0.071120*
%
%AMD119*
4,1,8,0.398780,0.838200,-0.398780,0.838200,-0.838200,0.398780,-0.838200,-0.398780,-0.398780,-0.838200,0.398780,-0.838200,0.838200,-0.398780,0.838200,0.398780,0.398780,0.838200,0.0*
1,1,0.876000,0.398780,0.398780*
1,1,0.876000,-0.398780,0.398780*
1,1,0.876000,-0.398780,-0.398780*
1,1,0.876000,0.398780,-0.398780*
%
%AMD121*
4,1,8,-0.873760,-0.449580,-0.449580,-0.873760,0.027940,-0.873760,0.873760,-0.027940,0.873760,0.449580,0.449580,0.873760,-0.027940,0.873760,-0.873760,0.027940,-0.873760,-0.449580,0.0*
1,1,0.676000,-0.635000,-0.210820*
1,1,0.676000,-0.210820,-0.635000*
1,1,0.676000,0.635000,0.210820*
1,1,0.676000,0.210820,0.635000*
%
%AMD122*
4,1,8,0.523240,0.238760,0.238760,0.523240,-0.096520,0.520700,-0.520700,0.096520,-0.523240,-0.238760,-0.238760,-0.523240,0.096520,-0.520700,0.520700,-0.096520,0.523240,0.238760,0.0*
1,1,0.476000,0.353060,0.071120*
1,1,0.476000,0.071120,0.353060*
1,1,0.476000,-0.353060,-0.071120*
1,1,0.476000,-0.071120,-0.353060*
%
%AMD123*
4,1,8,0.449580,-0.873760,0.873760,-0.449580,0.873760,0.027940,0.027940,0.873760,-0.449580,0.873760,-0.873760,0.449580,-0.873760,-0.027940,-0.027940,-0.873760,0.449580,-0.873760,0.0*
1,1,0.676000,0.210820,-0.635000*
1,1,0.676000,0.635000,-0.210820*
1,1,0.676000,-0.210820,0.635000*
1,1,0.676000,-0.635000,0.210820*
%
%AMD125*
4,1,8,0.309880,-0.873760,0.873760,-0.309880,0.873760,0.309880,0.309880,0.873760,-0.309880,0.873760,-0.873760,0.309880,-0.873760,-0.309880,-0.309880,-0.873760,0.309880,-0.873760,0.0*
1,1,0.876000,0.000000,-0.563880*
1,1,0.876000,0.563880,0.000000*
1,1,0.876000,0.000000,0.563880*
1,1,0.876000,-0.563880,0.000000*
%
G04~CAMADD=28~8~0.0~0.0~344.9~423.6~93.7~0.0~15~0.0~0.0~0.0~0.0~0~0.0~0.0~0.0~0.0~0~0.0~0.0~0.0~180.0~346.0~424.0*
%ADD28D28*%
G04~CAMADD=29~8~0.0~0.0~344.9~423.6~93.7~0.0~15~0.0~0.0~0.0~0.0~0~0.0~0.0~0.0~0.0~0~0.0~0.0~0.0~90.0~424.0~345.0*
%ADD29D29*%
%ADD33O,2.275995X1.675997*%
G04~CAMADD=34~8~0.0~0.0~502.4~738.6~133.1~0.0~15~0.0~0.0~0.0~0.0~0~0.0~0.0~0.0~0.0~0~0.0~0.0~0.0~90.0~738.0~502.0*
%ADD34D34*%
G04~CAMADD=35~8~0.0~0.0~423.6~502.4~113.4~0.0~15~0.0~0.0~0.0~0.0~0~0.0~0.0~0.0~0.0~0~0.0~0.0~0.0~0.0~423.6~502.4*
%ADD35D35*%
G04~CAMADD=44~8~0.0~0.0~344.9~423.6~93.7~0.0~15~0.0~0.0~0.0~0.0~0~0.0~0.0~0.0~0.0~0~0.0~0.0~0.0~225.0~466.0~465.0*
%ADD44D44*%
%ADD51C,6.475987*%
%ADD53C,1.472997*%
%ADD54R,2.275995X1.675997*%
%ADD55O,4.575991X2.075996*%
%ADD56O,2.075996X4.575991*%
%ADD57R,1.343997X1.343997*%
%ADD58C,1.343997*%
%ADD59C,3.325993*%
%ADD60C,2.970994*%
%ADD118O,0.575999X0.875998*%
G04~CAMADD=119~8~0.0~0.0~659.8~659.8~172.4~0.0~15~0.0~0.0~0.0~0.0~0~0.0~0.0~0.0~0.0~0~0.0~0.0~0.0~0.0~659.8~659.8*
%ADD119D119*%
%ADD120R,1.675997X1.675997*%
G04~CAMADD=121~8~0.0~0.0~502.4~738.6~133.1~0.0~15~0.0~0.0~0.0~0.0~0~0.0~0.0~0.0~0.0~0~0.0~0.0~0.0~135.0~766.0~765.0*
%ADD121D121*%
G04~CAMADD=122~8~0.0~0.0~344.9~423.6~93.7~0.0~15~0.0~0.0~0.0~0.0~0~0.0~0.0~0.0~0.0~0~0.0~0.0~0.0~315.0~466.0~465.0*
%ADD122D122*%
G04~CAMADD=123~8~0.0~0.0~502.4~738.6~133.1~0.0~15~0.0~0.0~0.0~0.0~0~0.0~0.0~0.0~0.0~0~0.0~0.0~0.0~225.0~766.0~765.0*
%ADD123D123*%
%ADD124O,2.075996X0.675999*%
G04~CAMADD=125~8~0.0~0.0~659.8~659.8~172.4~0.0~15~0.0~0.0~0.0~0.0~0~0.0~0.0~0.0~0.0~0~0.0~0.0~0.0~225.0~790.0~789.0*
%ADD125D125*%
%ADD126O,1.275997X2.075996*%
%ADD127O,1.475997X2.275995*%
%LNksz8851-1*%
%LPD*%
G54D28*
X45599Y33249D03*
Y34649D03*
X47099Y33249D03*
Y34649D03*
X83299Y30499D03*
Y31899D03*
X78599Y30499D03*
Y31899D03*
X77199Y30499D03*
Y31899D03*
X72799Y30499D03*
Y31899D03*
X81199Y50599D03*
Y49199D03*
X79799Y50599D03*
Y49199D03*
X78399Y50599D03*
Y49199D03*
X76599D03*
Y50599D03*
X74799D03*
Y49199D03*
X93199Y29999D03*
Y31399D03*
G54D29*
X89399Y46599D03*
X87999D03*
Y40099D03*
X89399D03*
Y38699D03*
X87999D03*
X89399Y36899D03*
X87999D03*
X89399Y32999D03*
X87999D03*
X68799Y31499D03*
X70199D03*
X68799Y33899D03*
X70199D03*
X68799Y35499D03*
X70199D03*
X68799Y38299D03*
X70199D03*
X68799Y39999D03*
X70199D03*
Y41699D03*
X68799D03*
Y47499D03*
X70199D03*
X8945Y13649D03*
X8805D03*
X88049Y12049D03*
X89449D03*
X37399Y36299D03*
X35999D03*
X35299Y38999D03*
X33899D03*
X35999Y48199D03*
X37399D03*
G54D33*
X94299Y43539D03*
Y38459D03*
X97699D03*
Y43539D03*
G54D34*
X58799Y25199D03*
X56199D03*
Y42099D03*
X53599D03*
G54D35*
X21399Y45299D03*
X23399D03*
X23349Y42449D03*
X21349D03*
Y38999D03*
X23349D03*
Y35949D03*
X21349D03*
G54D44*
X47204Y40294D03*
X48194Y39304D03*
X46204Y39294D03*
X47194Y38304D03*
X43694Y43104D03*
X42704Y44094D03*
G54D51*
X96099Y65799D03*
X03799Y75099D03*
X96199Y13499D03*
X03899Y03999D03*
G54D53*
X97604Y47345D03*
X95604D03*
X97604Y49345D03*
X95604D03*
X97604Y51345D03*
X95604D03*
X97604Y53345D03*
X95604D03*
X97604Y55345D03*
X95604D03*
X97604Y57345D03*
X95604D03*
X97604Y59345D03*
X95604D03*
G54D54*
X94299Y40999D03*
X97699D03*
G54D55*
X36499Y14199D03*
Y08199D03*
G54D56*
X41199Y11199D03*
G54D57*
X14249Y46144D03*
G54D58*
X16789Y44874D03*
X14249Y43604D03*
X16789Y42334D03*
X14249Y41064D03*
X16789Y39794D03*
X14249Y38524D03*
X16789Y37254D03*
G54D59*
X07899Y35984D03*
Y47414D03*
G54D60*
X04849Y49824D03*
Y33574D03*
G54D118*
X60099Y34499D03*
X59299D03*
X60899D03*
X61699D03*
X59299Y35899D03*
X60099D03*
X60899D03*
X61699D03*
X59299Y38899D03*
X60099D03*
X60899D03*
X59299Y40299D03*
X61699Y38899D03*
X60099Y40299D03*
X60899D03*
X61699D03*
G54D119*
X55699Y27299D03*
Y29499D03*
X53399Y44299D03*
X56199D03*
G54D120*
X59299Y27299D03*
Y29499D03*
G54D121*
X40066Y36868D03*
X41905Y38707D03*
G54D122*
X45094Y40194D03*
X44104Y39204D03*
X46904Y45104D03*
X47894Y46094D03*
X49804Y42404D03*
X50794Y43394D03*
X42894Y41894D03*
X41904Y40904D03*
G54D123*
X4398Y45219D03*
X45819Y4338D03*
G54D124*
X35099Y56004D03*
Y54734D03*
Y53464D03*
Y52194D03*
X29499Y56004D03*
Y54734D03*
Y53464D03*
Y52194D03*
G54D125*
X3961Y40909D03*
X41589Y42889D03*
G54D126*
X48749Y3175D03*
X43749D03*
G54D127*
X68655Y03729D03*
X71195D03*
X73735D03*
X76275D03*
X78815D03*
X81355D03*
X83895D03*
X86435D03*
X88975D03*
X91515D03*
X94055D03*
X96595D03*
X68655Y06269D03*
X71195D03*
X73735D03*
X76275D03*
X78815D03*
X81355D03*
X83895D03*
X86435D03*
X88975D03*
X91515D03*
X94055D03*
X96595D03*
X68655Y73704D03*
X71195D03*
X73735D03*
X76275D03*
X78815D03*
X81355D03*
X83895D03*
X86435D03*
X88975D03*
X91515D03*
X94055D03*
X96595D03*
X68655Y76244D03*
X71195D03*
X73735D03*
X76275D03*
X78815D03*
X81355D03*
X83895D03*
X86435D03*
X88975D03*
X91515D03*
X94055D03*
X96595D03*
M02*