%FSTAX23Y23*%
%MOMM*%
%SFA1B1*%

%IPPOS*%
%ADD9500C,0.200000*%
%ADD9501C,0.300000*%
%ADD9502C,0.400000*%
%ADD9503C,0.760000*%
%ADD9504C,0.800000*%
%ADD9505C,0.889000*%
%ADD9506C,1.000000*%
%ADD9507C,1.930000*%
%ADD9508C,4.200000*%
%ADD9509C,3.250000*%
%LNksz8851-roundholes-1*%
%LPD*%
G54D9500*
X95376Y18576D03*
X97849Y19799D03*
X96999Y24074D03*
X91299Y23399D03*
X89949Y254D03*
X88249Y24699D03*
X86649Y26499D03*
X87499Y27899D03*
X89899Y28549D03*
X90999Y33049D03*
X93194Y32194D03*
X93449Y34299D03*
X88149Y33549D03*
X87499Y32999D03*
X85299Y31499D03*
X83299Y32399D03*
X83249Y28299D03*
X82849Y26499D03*
X83199Y25799D03*
X83799Y22124D03*
X84599Y21674D03*
Y20899D03*
Y20124D03*
X85424Y20324D03*
X83799Y19799D03*
Y14999D03*
X85999Y16399D03*
X87799Y15799D03*
X89774Y16074D03*
X90749Y15749D03*
X91749D03*
X92749D03*
X92499Y14749D03*
Y13749D03*
Y12749D03*
X91499D03*
Y13749D03*
X90499D03*
Y12999D03*
X90999Y11999D03*
X90749Y11353D03*
X91499D03*
X92249D03*
X91999Y11999D03*
X91499Y14749D03*
X90499D03*
X90199Y1897D03*
X92349Y19799D03*
X78234Y14465D03*
X71999Y21299D03*
X68449Y20299D03*
Y23899D03*
X70399Y26999D03*
X71004Y28295D03*
X7172Y28199D03*
X72799Y28299D03*
X72799Y32399D03*
X72999Y34295D03*
X73099Y37499D03*
Y39199D03*
X71299D03*
X70699Y39999D03*
X70199Y37799D03*
X69799Y37049D03*
X70999Y36599D03*
X70199Y34999D03*
Y33453D03*
Y31945D03*
X68294Y30949D03*
X67058Y34011D03*
X66399Y34399D03*
X65567Y34199D03*
X65799Y33099D03*
X64799Y32999D03*
X63899D03*
X63164Y34528D03*
X62599Y37799D03*
X59499Y37699D03*
X58599Y37299D03*
X58126Y35699D03*
X57945Y34949D03*
X57545Y3364D03*
X57749Y39999D03*
X57249Y40499D03*
X58249D03*
Y39499D03*
X66299D03*
Y40322D03*
X67117Y35549D03*
X66929Y27799D03*
X66433Y28266D03*
X65899Y28799D03*
X61924Y29624D03*
X54699Y26299D03*
X54899Y25199D03*
X55049Y12399D03*
X56649Y12199D03*
X55549Y10399D03*
X55249Y07999D03*
X58749Y09099D03*
X59474D03*
X60149D03*
X60174Y08424D03*
X59474D03*
X58274Y09824D03*
X58249Y10549D03*
X61599Y11649D03*
X62199Y09749D03*
X62649Y07999D03*
X61099Y02899D03*
X60166D03*
X59233D03*
X58299D03*
X77749Y27999D03*
X78249Y28499D03*
X76899Y30799D03*
X77191Y32399D03*
X76799Y32999D03*
X78499Y33199D03*
X78599Y32399D03*
X87499Y36899D03*
Y38699D03*
X87547Y40052D03*
X90699Y40032D03*
X91079Y39378D03*
X90999Y381D03*
X49699Y37599D03*
X48999Y37125D03*
X47299Y35999D03*
X46799Y35399D03*
X45699D03*
X46199Y35999D03*
X4581Y39689D03*
X43074Y37099D03*
X40899Y40199D03*
X38999Y34399D03*
X37149Y31199D03*
X34199Y30449D03*
X52499Y29499D03*
X53099Y31199D03*
X52674Y09149D03*
X51999D03*
Y08474D03*
X52699D03*
X51274Y09149D03*
X508Y09874D03*
X50774Y10599D03*
X49149Y12299D03*
X46449Y13999D03*
Y06399D03*
X43349Y01799D03*
X50899Y02899D03*
X51833D03*
X52766D03*
X53699D03*
X06799Y60699D03*
X04499Y59949D03*
X28034Y53464D03*
X28104Y52194D03*
X36299Y52199D03*
Y53499D03*
Y55999D03*
X46899Y51299D03*
X47799Y52199D03*
X48999Y47399D03*
X47299Y44699D03*
X4654Y42634D03*
X4681Y40689D03*
X45489Y40589D03*
X43289Y41499D03*
X44089Y42709D03*
X41399Y44743D03*
X41608Y45397D03*
X42149Y45849D03*
X4941Y42009D03*
X52099Y44299D03*
X56749Y40999D03*
X57749D03*
X57249Y41499D03*
X62449Y41049D03*
X66299Y41094D03*
X70699Y41699D03*
X69999Y43049D03*
X70699Y47499D03*
X66399Y47799D03*
X62599Y51899D03*
X61749D03*
X60824D03*
X59899D03*
X62099Y52599D03*
X74633Y52183D03*
X77678Y52449D03*
X78349D03*
X79603Y52869D03*
X79474Y54449D03*
X81257Y52399D03*
X81199Y48499D03*
X79799Y48699D03*
X78399D03*
X76599D03*
X75699D03*
X74799D03*
X73999Y49499D03*
X85749Y49699D03*
X88199Y49049D03*
X87499Y46657D03*
X86849Y46115D03*
X87349Y45549D03*
X86835Y45007D03*
X87349Y44441D03*
X87399Y43299D03*
X87349Y42557D03*
X86699Y42199D03*
X85499Y41699D03*
X85899Y41099D03*
X86599Y43888D03*
X9095Y46549D03*
X9355Y45999D03*
X93599Y47499D03*
X93582Y48899D03*
X71849Y68599D03*
X69149D03*
X66649D03*
X64099D03*
G54D9501*
X26499Y39024D03*
X32749D03*
X38124Y37799D03*
Y40299D03*
X04591Y55714D03*
Y57964D03*
X26499Y45374D03*
X38124Y46499D03*
Y44199D03*
X45981Y45799D03*
X46099Y48199D03*
G54D9502*
X67699Y18499D03*
X68899D03*
X72599D03*
X73299Y19599D03*
X74549D03*
X75799D03*
X75099Y18499D03*
X69299Y25299D03*
X67799D03*
X18299Y24924D03*
Y22924D03*
Y20924D03*
X16299D03*
Y22924D03*
Y24924D03*
Y26924D03*
Y28924D03*
Y30924D03*
Y32924D03*
Y34925D03*
X21999Y32999D03*
X23499D03*
Y31249D03*
X21999D03*
X18299Y26924D03*
Y18924D03*
Y16924D03*
Y14924D03*
X16299D03*
Y16924D03*
Y18924D03*
Y12924D03*
Y10924D03*
X16135Y08499D03*
Y06499D03*
Y04499D03*
Y02499D03*
X18299D03*
Y04499D03*
Y06499D03*
Y08499D03*
X13971D03*
Y06499D03*
Y04499D03*
Y02499D03*
X11807D03*
Y04499D03*
Y06499D03*
Y08499D03*
X09499D03*
Y06499D03*
Y04499D03*
Y02499D03*
X07599Y08799D03*
Y10899D03*
Y12899D03*
Y14899D03*
Y16899D03*
X07642Y18924D03*
Y20924D03*
Y22924D03*
Y24924D03*
Y26924D03*
Y28924D03*
Y30924D03*
Y32924D03*
X09807D03*
Y30924D03*
Y28924D03*
Y26924D03*
Y24924D03*
Y22924D03*
Y20924D03*
Y18924D03*
Y16924D03*
Y14924D03*
Y12924D03*
Y10924D03*
X11971D03*
Y12924D03*
Y14924D03*
Y16924D03*
Y18924D03*
Y20924D03*
Y22924D03*
Y24924D03*
Y26924D03*
Y28924D03*
Y30924D03*
Y32924D03*
Y34925D03*
Y36924D03*
X10524Y35899D03*
X10699Y38924D03*
X14135Y34925D03*
Y32924D03*
Y30924D03*
Y28924D03*
Y26924D03*
Y24924D03*
Y22924D03*
Y20924D03*
Y18924D03*
Y16924D03*
Y14924D03*
Y12924D03*
Y10924D03*
X05435Y10899D03*
Y12899D03*
Y14899D03*
Y16899D03*
X05478Y18924D03*
Y20924D03*
Y22924D03*
Y24924D03*
Y26924D03*
Y28924D03*
Y30924D03*
X03314D03*
Y28924D03*
Y26924D03*
Y24924D03*
Y22924D03*
Y20924D03*
Y18924D03*
X03271Y16899D03*
Y14899D03*
Y12899D03*
Y10899D03*
Y08799D03*
X05435D03*
X01107D03*
Y10899D03*
Y12899D03*
Y14899D03*
Y16899D03*
X01149Y18924D03*
Y20924D03*
Y22924D03*
Y24924D03*
Y26924D03*
Y28924D03*
Y30924D03*
X02599Y61199D03*
X04599D03*
X05599Y63199D03*
X07599D03*
X08599Y65199D03*
X06599D03*
X04599D03*
X02599D03*
X03599Y67199D03*
X05599D03*
X07599D03*
X09599D03*
X11599D03*
X12599Y69199D03*
X10599D03*
X08599D03*
X06599D03*
X04599D03*
X02599D03*
X01599Y71199D03*
X05599D03*
X07599D03*
X09599D03*
X11599D03*
X13599D03*
X12599Y73199D03*
X10599D03*
X08599D03*
X09599Y75199D03*
X11599D03*
X13599D03*
X12599Y77199D03*
X10599D03*
X08599D03*
X11599Y63199D03*
X13599D03*
X12599Y61199D03*
X10599D03*
X11599Y59199D03*
X13599D03*
X09599D03*
X07599D03*
X03599Y63199D03*
X01599D03*
Y67199D03*
X15599D03*
X17599D03*
X19599D03*
X21599D03*
X23599D03*
X25599D03*
X27599D03*
X29599D03*
X31599D03*
X33599D03*
X35599D03*
X37599D03*
X39599D03*
X41599D03*
X43599D03*
X45599D03*
X47599D03*
X49599D03*
X53599D03*
X52599Y65199D03*
X53599Y63199D03*
X51599D03*
X49599D03*
X50599Y61199D03*
X52599D03*
X53599Y59199D03*
X51599D03*
X49599D03*
X45599D03*
X43599D03*
X41599D03*
X39599D03*
X37599D03*
X35599D03*
X33599D03*
X31599D03*
X29599D03*
X27599D03*
X25599D03*
X23599D03*
X21599D03*
X19599D03*
X17599D03*
X15599D03*
X16599Y61199D03*
X18599D03*
X20599D03*
X22599D03*
X24599D03*
X26599D03*
X28599D03*
X30599D03*
X32599D03*
X34599D03*
X36599D03*
X38599D03*
X40599D03*
X42599D03*
X44599D03*
X46599D03*
X45599Y63199D03*
X43599D03*
X41599D03*
X39599D03*
X37599D03*
X35599D03*
X33599D03*
X31599D03*
X29599D03*
X27599D03*
X25599D03*
X23599D03*
X21599D03*
X19599D03*
X17599D03*
X15599D03*
X16599Y65199D03*
X18599D03*
X20599D03*
X22599D03*
X24599D03*
X26599D03*
X28599D03*
X30599D03*
X32599D03*
X34599D03*
X36599D03*
X38599D03*
X40599D03*
X42599D03*
X44599D03*
X46599D03*
X47599Y71199D03*
X49599D03*
X51599D03*
X53599D03*
X52599Y73199D03*
X50599D03*
X48599D03*
X46599D03*
X44599D03*
X42599D03*
X40599D03*
X38599D03*
X36599D03*
X34599D03*
X32599D03*
X30599D03*
X28599D03*
X26599D03*
X24599D03*
X22599D03*
X20599D03*
X18599D03*
X16599D03*
X14599D03*
X15599Y75199D03*
X17599D03*
X19599D03*
X21599D03*
X23599D03*
X25599D03*
X27599D03*
X29599D03*
X31599D03*
X33599D03*
X35599D03*
X37599D03*
X39599D03*
X41599D03*
X43599D03*
X45599D03*
X47599D03*
X49599D03*
X51599D03*
X53599D03*
X52599Y77199D03*
X50599D03*
X48599D03*
X46599D03*
X44599D03*
X42599D03*
X40599D03*
X38599D03*
X36599D03*
X34599D03*
X32599D03*
X30599D03*
X28599D03*
X26599D03*
X24599D03*
X22599D03*
X20599D03*
X18599D03*
X16599D03*
X14599D03*
X15599Y71199D03*
X17599D03*
X19599D03*
X21599D03*
X23599D03*
X25599D03*
X27599D03*
X29599D03*
X31599D03*
X33599D03*
X35599D03*
X37599D03*
X39599D03*
X41599D03*
X43599D03*
X45599D03*
X14599Y65199D03*
Y61199D03*
X54599D03*
X56599D03*
X586D03*
X596Y59199D03*
X57599D03*
X55599D03*
Y63199D03*
X57599D03*
X586Y65199D03*
X56599D03*
X54599D03*
X55599Y67199D03*
X57599D03*
X616D03*
Y71199D03*
X636D03*
X656D03*
X646Y73199D03*
X626D03*
X606D03*
X586D03*
X56599D03*
X54599D03*
X55599Y75199D03*
X57599D03*
X596D03*
X616D03*
X636D03*
X656D03*
X646Y77199D03*
X626D03*
X606D03*
X586D03*
X56599D03*
X54599D03*
X55599Y71199D03*
X57599D03*
X596D03*
X616Y63199D03*
X626Y61199D03*
X656Y59199D03*
X606Y57199D03*
G54D9503*
X16789Y37254D03*
Y39794D03*
X14249Y38524D03*
Y41064D03*
Y43604D03*
Y46144D03*
X16789Y44874D03*
Y42334D03*
G54D9504*
X43749Y3175D03*
X48749D03*
G54D9505*
X95604Y47345D03*
X97604D03*
Y49345D03*
Y51345D03*
X95604D03*
Y49345D03*
Y53345D03*
Y55345D03*
X97604D03*
Y53345D03*
Y57345D03*
X95604D03*
Y59345D03*
X97604D03*
G54D9506*
X94055Y03729D03*
X96595D03*
Y06269D03*
X94055D03*
X94299Y38459D03*
X97699D03*
X91515Y06269D03*
Y03729D03*
X88975D03*
X86435D03*
X83895D03*
X81355D03*
X78815D03*
X76275D03*
X73735D03*
X71195D03*
X68655D03*
Y06269D03*
X71195D03*
X73735D03*
X76275D03*
X78815D03*
X81355D03*
X83895D03*
X86435D03*
X88975D03*
Y73704D03*
X86435D03*
X83895D03*
X81355D03*
X78815D03*
X76275D03*
X73735D03*
X71195D03*
X68655D03*
Y76244D03*
X71195D03*
X73735D03*
X76275D03*
X78815D03*
X81355D03*
X83895D03*
X86435D03*
X88975D03*
X91515D03*
Y73704D03*
X94055D03*
X96595D03*
Y76244D03*
X94055D03*
X94299Y43539D03*
Y40999D03*
X97699D03*
Y43539D03*
G54D9507*
X04849Y33574D03*
Y49824D03*
G54D9508*
X96199Y13499D03*
X03899Y03999D03*
X03799Y75099D03*
X96099Y65799D03*
G54D9509*
X07899Y35984D03*
Y47414D03*
M02*