%FSTAX23Y23*%
%MOMM*%
%SFA1B1*%

%IPPOS*%
%AMD65*
4,1,8,-0.200660,-0.500380,0.200660,-0.500380,0.398780,-0.299720,0.398780,0.299720,0.200660,0.500380,-0.200660,0.500380,-0.398780,0.299720,-0.398780,-0.299720,-0.200660,-0.500380,0.0*
1,1,0.400000,-0.200660,-0.299720*
1,1,0.400000,0.200660,-0.299720*
1,1,0.400000,0.200660,0.299720*
1,1,0.400000,-0.200660,0.299720*
%
%AMD66*
4,1,8,-0.500380,0.200660,-0.500380,-0.200660,-0.299720,-0.398780,0.299720,-0.398780,0.500380,-0.200660,0.500380,0.200660,0.299720,0.398780,-0.299720,0.398780,-0.500380,0.200660,0.0*
1,1,0.400000,-0.299720,0.200660*
1,1,0.400000,-0.299720,-0.200660*
1,1,0.400000,0.299720,-0.200660*
1,1,0.400000,0.299720,0.200660*
%
%AMD71*
4,1,8,-0.899160,0.299720,-0.899160,-0.299720,-0.599440,-0.599440,0.599440,-0.599440,0.899160,-0.299720,0.899160,0.299720,0.599440,0.599440,-0.599440,0.599440,-0.899160,0.299720,0.0*
1,1,0.600000,-0.599440,0.299720*
1,1,0.600000,-0.599440,-0.299720*
1,1,0.600000,0.599440,-0.299720*
1,1,0.600000,0.599440,0.299720*
%
%AMD72*
4,1,8,0.248920,0.599440,-0.248920,0.599440,-0.500380,0.350520,-0.500380,-0.350520,-0.248920,-0.599440,0.248920,-0.599440,0.500380,-0.350520,0.500380,0.350520,0.248920,0.599440,0.0*
1,1,0.500000,0.248920,0.350520*
1,1,0.500000,-0.248920,0.350520*
1,1,0.500000,-0.248920,-0.350520*
1,1,0.500000,0.248920,-0.350520*
%
%AMD81*
4,1,8,0.210820,-0.495300,0.495300,-0.210820,0.492760,0.071120,0.071120,0.492760,-0.210820,0.495300,-0.495300,0.210820,-0.492760,-0.071120,-0.071120,-0.492760,0.210820,-0.495300,0.0*
1,1,0.400000,0.071120,-0.353060*
1,1,0.400000,0.353060,-0.071120*
1,1,0.400000,-0.071120,0.353060*
1,1,0.400000,-0.353060,0.071120*
%
%AMD107*
4,1,8,0.398780,0.800100,-0.398780,0.800100,-0.800100,0.398780,-0.800100,-0.398780,-0.398780,-0.800100,0.398780,-0.800100,0.800100,-0.398780,0.800100,0.398780,0.398780,0.800100,0.0*
1,1,0.800000,0.398780,0.398780*
1,1,0.800000,-0.398780,0.398780*
1,1,0.800000,-0.398780,-0.398780*
1,1,0.800000,0.398780,-0.398780*
%
%AMD109*
4,1,8,-0.848360,-0.424180,-0.424180,-0.848360,0.000000,-0.848360,0.848360,0.000000,0.848360,0.424180,0.424180,0.848360,0.000000,0.848360,-0.848360,0.000000,-0.848360,-0.424180,0.0*
1,1,0.600000,-0.635000,-0.210820*
1,1,0.600000,-0.210820,-0.635000*
1,1,0.600000,0.635000,0.210820*
1,1,0.600000,0.210820,0.635000*
%
%AMD110*
4,1,8,0.495300,0.210820,0.210820,0.495300,-0.071120,0.492760,-0.492760,0.071120,-0.495300,-0.210820,-0.210820,-0.495300,0.071120,-0.492760,0.492760,-0.071120,0.495300,0.210820,0.0*
1,1,0.400000,0.353060,0.071120*
1,1,0.400000,0.071120,0.353060*
1,1,0.400000,-0.353060,-0.071120*
1,1,0.400000,-0.071120,-0.353060*
%
%AMD111*
4,1,8,0.424180,-0.848360,0.848360,-0.424180,0.848360,0.000000,0.000000,0.848360,-0.424180,0.848360,-0.848360,0.424180,-0.848360,0.000000,0.000000,-0.848360,0.424180,-0.848360,0.0*
1,1,0.600000,0.210820,-0.635000*
1,1,0.600000,0.635000,-0.210820*
1,1,0.600000,-0.210820,0.635000*
1,1,0.600000,-0.635000,0.210820*
%
%AMD113*
4,1,8,0.284480,-0.848360,0.848360,-0.284480,0.848360,0.284480,0.284480,0.848360,-0.284480,0.848360,-0.848360,0.284480,-0.848360,-0.284480,-0.284480,-0.848360,0.284480,-0.848360,0.0*
1,1,0.800000,0.000000,-0.563880*
1,1,0.800000,0.563880,0.000000*
1,1,0.800000,0.000000,0.563880*
1,1,0.800000,-0.563880,0.000000*
%
G04~CAMADD=65~8~0.0~0.0~315.0~393.7~78.7~0.0~15~0.0~0.0~0.0~0.0~0~0.0~0.0~0.0~0.0~0~0.0~0.0~0.0~180.0~316.0~394.0*
%ADD65D65*%
G04~CAMADD=66~8~0.0~0.0~315.0~393.7~78.7~0.0~15~0.0~0.0~0.0~0.0~0~0.0~0.0~0.0~0.0~0~0.0~0.0~0.0~90.0~394.0~315.0*
%ADD66D66*%
%ADD70O,2.199996X1.599997*%
G04~CAMADD=71~8~0.0~0.0~472.4~708.7~118.1~0.0~15~0.0~0.0~0.0~0.0~0~0.0~0.0~0.0~0.0~0~0.0~0.0~0.0~90.0~708.0~472.0*
%ADD71D71*%
G04~CAMADD=72~8~0.0~0.0~393.7~472.4~98.4~0.0~15~0.0~0.0~0.0~0.0~0~0.0~0.0~0.0~0.0~0~0.0~0.0~0.0~0.0~393.7~472.4*
%ADD72D72*%
G04~CAMADD=81~8~0.0~0.0~315.0~393.7~78.7~0.0~15~0.0~0.0~0.0~0.0~0~0.0~0.0~0.0~0.0~0~0.0~0.0~0.0~225.0~436.0~435.0*
%ADD81D81*%
%ADD92C,6.399987*%
%ADD94C,1.396997*%
%ADD95R,2.199996X1.599997*%
%ADD96O,4.499991X1.999996*%
%ADD97O,1.999996X4.499991*%
%ADD98R,1.267997X1.267997*%
%ADD99C,1.267997*%
%ADD100C,3.249993*%
%ADD101C,2.894994*%
%ADD106O,0.499999X0.799998*%
G04~CAMADD=107~8~0.0~0.0~629.9~629.9~157.5~0.0~15~0.0~0.0~0.0~0.0~0~0.0~0.0~0.0~0.0~0~0.0~0.0~0.0~0.0~629.9~629.9*
%ADD107D107*%
%ADD108R,1.599997X1.599997*%
G04~CAMADD=109~8~0.0~0.0~472.4~708.7~118.1~0.0~15~0.0~0.0~0.0~0.0~0~0.0~0.0~0.0~0.0~0~0.0~0.0~0.0~135.0~738.0~737.0*
%ADD109D109*%
G04~CAMADD=110~8~0.0~0.0~315.0~393.7~78.7~0.0~15~0.0~0.0~0.0~0.0~0~0.0~0.0~0.0~0.0~0~0.0~0.0~0.0~315.0~436.0~435.0*
%ADD110D110*%
G04~CAMADD=111~8~0.0~0.0~472.4~708.7~118.1~0.0~15~0.0~0.0~0.0~0.0~0~0.0~0.0~0.0~0.0~0~0.0~0.0~0.0~225.0~738.0~737.0*
%ADD111D111*%
%ADD112O,1.999996X0.599999*%
G04~CAMADD=113~8~0.0~0.0~629.9~629.9~157.5~0.0~15~0.0~0.0~0.0~0.0~0~0.0~0.0~0.0~0.0~0~0.0~0.0~0.0~225.0~760.0~759.0*
%ADD113D113*%
%ADD116O,1.199998X1.999996*%
%ADD117O,1.399997X2.199996*%
%LNksz8851-1*%
%LPD*%
G54D65*
X45599Y33249D03*
Y34649D03*
X47099Y33249D03*
Y34649D03*
X83299Y30499D03*
Y31899D03*
X78599Y30499D03*
Y31899D03*
X77199Y30499D03*
Y31899D03*
X72799Y30499D03*
Y31899D03*
X81199Y50599D03*
Y49199D03*
X79799Y50599D03*
Y49199D03*
X78399Y50599D03*
Y49199D03*
X76599D03*
Y50599D03*
X74799D03*
Y49199D03*
X93199Y29999D03*
Y31399D03*
G54D66*
X89399Y46599D03*
X87999D03*
Y40099D03*
X89399D03*
Y38699D03*
X87999D03*
X89399Y36899D03*
X87999D03*
X89399Y32999D03*
X87999D03*
X68799Y31499D03*
X70199D03*
X68799Y33899D03*
X70199D03*
X68799Y35499D03*
X70199D03*
X68799Y38299D03*
X70199D03*
X68799Y39999D03*
X70199D03*
Y41699D03*
X68799D03*
Y47499D03*
X70199D03*
X8945Y13649D03*
X8805D03*
X88049Y12049D03*
X89449D03*
X37399Y36299D03*
X35999D03*
X35299Y38999D03*
X33899D03*
X35999Y48199D03*
X37399D03*
G54D70*
X94299Y43539D03*
Y38459D03*
X97699D03*
Y43539D03*
G54D71*
X58799Y25199D03*
X56199D03*
Y42099D03*
X53599D03*
G54D72*
X21399Y45299D03*
X23399D03*
X23349Y42449D03*
X21349D03*
Y38999D03*
X23349D03*
Y35949D03*
X21349D03*
G54D81*
X47204Y40294D03*
X48194Y39304D03*
X46204Y39294D03*
X47194Y38304D03*
X43694Y43104D03*
X42704Y44094D03*
G54D92*
X96099Y65799D03*
X03799Y75099D03*
X96199Y13499D03*
X03899Y03999D03*
G54D94*
X97604Y47345D03*
X95604D03*
X97604Y49345D03*
X95604D03*
X97604Y51345D03*
X95604D03*
X97604Y53345D03*
X95604D03*
X97604Y55345D03*
X95604D03*
X97604Y57345D03*
X95604D03*
X97604Y59345D03*
X95604D03*
G54D95*
X94299Y40999D03*
X97699D03*
G54D96*
X36499Y14199D03*
Y08199D03*
G54D97*
X41199Y11199D03*
G54D98*
X14249Y46144D03*
G54D99*
X16789Y44874D03*
X14249Y43604D03*
X16789Y42334D03*
X14249Y41064D03*
X16789Y39794D03*
X14249Y38524D03*
X16789Y37254D03*
G54D100*
X07899Y35984D03*
Y47414D03*
G54D101*
X04849Y49824D03*
Y33574D03*
G54D106*
X60099Y34499D03*
X59299D03*
X60899D03*
X61699D03*
X59299Y35899D03*
X60099D03*
X60899D03*
X61699D03*
X59299Y38899D03*
X60099D03*
X60899D03*
X59299Y40299D03*
X61699Y38899D03*
X60099Y40299D03*
X60899D03*
X61699D03*
G54D107*
X55699Y27299D03*
Y29499D03*
X53399Y44299D03*
X56199D03*
G54D108*
X59299Y27299D03*
Y29499D03*
G54D109*
X40066Y36868D03*
X41905Y38707D03*
G54D110*
X45094Y40194D03*
X44104Y39204D03*
X46904Y45104D03*
X47894Y46094D03*
X49804Y42404D03*
X50794Y43394D03*
X42894Y41894D03*
X41904Y40904D03*
G54D111*
X4398Y45219D03*
X45819Y4338D03*
G54D112*
X35099Y56004D03*
Y54734D03*
Y53464D03*
Y52194D03*
X29499Y56004D03*
Y54734D03*
Y53464D03*
Y52194D03*
G54D113*
X3961Y40909D03*
X41589Y42889D03*
G54D116*
X48749Y3175D03*
X43749D03*
G54D117*
X68655Y03729D03*
X71195D03*
X73735D03*
X76275D03*
X78815D03*
X81355D03*
X83895D03*
X86435D03*
X88975D03*
X91515D03*
X94055D03*
X96595D03*
X68655Y06269D03*
X71195D03*
X73735D03*
X76275D03*
X78815D03*
X81355D03*
X83895D03*
X86435D03*
X88975D03*
X91515D03*
X94055D03*
X96595D03*
X68655Y73704D03*
X71195D03*
X73735D03*
X76275D03*
X78815D03*
X81355D03*
X83895D03*
X86435D03*
X88975D03*
X91515D03*
X94055D03*
X96595D03*
X68655Y76244D03*
X71195D03*
X73735D03*
X76275D03*
X78815D03*
X81355D03*
X83895D03*
X86435D03*
X88975D03*
X91515D03*
X94055D03*
X96595D03*
M02*