%FSTAX23Y23*%
%MOMM*%
%SFA1B1*%

%IPPOS*%
%AMD61*
4,1,8,-1.099820,0.660400,-1.099820,-0.660400,-0.660400,-1.099820,0.660400,-1.099820,1.099820,-0.660400,1.099820,0.660400,0.660400,1.099820,-0.660400,1.099820,-1.099820,0.660400,0.0*
1,1,0.880000,-0.660400,0.660400*
1,1,0.880000,-0.660400,-0.660400*
1,1,0.880000,0.660400,-0.660400*
1,1,0.880000,0.660400,0.660400*
%
%AMD65*
4,1,8,-0.200660,-0.500380,0.200660,-0.500380,0.398780,-0.299720,0.398780,0.299720,0.200660,0.500380,-0.200660,0.500380,-0.398780,0.299720,-0.398780,-0.299720,-0.200660,-0.500380,0.0*
1,1,0.400000,-0.200660,-0.299720*
1,1,0.400000,0.200660,-0.299720*
1,1,0.400000,0.200660,0.299720*
1,1,0.400000,-0.200660,0.299720*
%
%AMD66*
4,1,8,-0.500380,0.200660,-0.500380,-0.200660,-0.299720,-0.398780,0.299720,-0.398780,0.500380,-0.200660,0.500380,0.200660,0.299720,0.398780,-0.299720,0.398780,-0.500380,0.200660,0.0*
1,1,0.400000,-0.299720,0.200660*
1,1,0.400000,-0.299720,-0.200660*
1,1,0.400000,0.299720,-0.200660*
1,1,0.400000,0.299720,0.200660*
%
%AMD68*
4,1,8,-0.599440,0.248920,-0.599440,-0.248920,-0.350520,-0.500380,0.350520,-0.500380,0.599440,-0.248920,0.599440,0.248920,0.350520,0.500380,-0.350520,0.500380,-0.599440,0.248920,0.0*
1,1,0.500000,-0.350520,0.248920*
1,1,0.500000,-0.350520,-0.248920*
1,1,0.500000,0.350520,-0.248920*
1,1,0.500000,0.350520,0.248920*
%
%AMD71*
4,1,8,-0.899160,0.299720,-0.899160,-0.299720,-0.599440,-0.599440,0.599440,-0.599440,0.899160,-0.299720,0.899160,0.299720,0.599440,0.599440,-0.599440,0.599440,-0.899160,0.299720,0.0*
1,1,0.600000,-0.599440,0.299720*
1,1,0.600000,-0.599440,-0.299720*
1,1,0.600000,0.599440,-0.299720*
1,1,0.600000,0.599440,0.299720*
%
%AMD72*
4,1,8,0.248920,0.599440,-0.248920,0.599440,-0.500380,0.350520,-0.500380,-0.350520,-0.248920,-0.599440,0.248920,-0.599440,0.500380,-0.350520,0.500380,0.350520,0.248920,0.599440,0.0*
1,1,0.500000,0.248920,0.350520*
1,1,0.500000,-0.248920,0.350520*
1,1,0.500000,-0.248920,-0.350520*
1,1,0.500000,0.248920,-0.350520*
%
%AMD75*
4,1,8,0.398780,1.099820,-0.398780,1.099820,-0.800100,0.701040,-0.800100,-0.701040,-0.398780,-1.099820,0.398780,-1.099820,0.800100,-0.701040,0.800100,0.701040,0.398780,1.099820,0.0*
1,1,0.800000,0.398780,0.701040*
1,1,0.800000,-0.398780,0.701040*
1,1,0.800000,-0.398780,-0.701040*
1,1,0.800000,0.398780,-0.701040*
%
%AMD77*
4,1,8,0.800100,-0.398780,0.800100,0.398780,0.398780,0.800100,-0.398780,0.800100,-0.800100,0.398780,-0.800100,-0.398780,-0.398780,-0.800100,0.398780,-0.800100,0.800100,-0.398780,0.0*
1,1,0.800000,0.398780,-0.398780*
1,1,0.800000,0.398780,0.398780*
1,1,0.800000,-0.398780,0.398780*
1,1,0.800000,-0.398780,-0.398780*
%
%AMD78*
4,1,4,-0.353060,0.563880,-0.563880,0.353060,0.353060,-0.563880,0.563880,-0.353060,-0.353060,0.563880,0.0*
1,1,0.300000,-0.457200,0.457200*
1,1,0.300000,0.457200,-0.457200*
%
%AMD79*
4,1,4,0.563880,0.353060,0.353060,0.563880,-0.563880,-0.353060,-0.353060,-0.563880,0.563880,0.353060,0.0*
1,1,0.300000,0.457200,0.457200*
1,1,0.300000,-0.457200,-0.457200*
%
%AMD80*
4,1,8,0.299720,0.899160,-0.299720,0.899160,-0.599440,0.599440,-0.599440,-0.599440,-0.299720,-0.899160,0.299720,-0.899160,0.599440,-0.599440,0.599440,0.599440,0.299720,0.899160,0.0*
1,1,0.600000,0.299720,0.599440*
1,1,0.600000,-0.299720,0.599440*
1,1,0.600000,-0.299720,-0.599440*
1,1,0.600000,0.299720,-0.599440*
%
%AMD81*
4,1,8,0.210820,-0.495300,0.495300,-0.210820,0.492760,0.071120,0.071120,0.492760,-0.210820,0.495300,-0.495300,0.210820,-0.492760,-0.071120,-0.071120,-0.492760,0.210820,-0.495300,0.0*
1,1,0.400000,0.071120,-0.353060*
1,1,0.400000,0.353060,-0.071120*
1,1,0.400000,-0.071120,0.353060*
1,1,0.400000,-0.353060,0.071120*
%
%AMD82*
4,1,8,0.599440,0.248920,0.248920,0.599440,-0.106680,0.601980,-0.601980,0.106680,-0.599440,-0.248920,-0.248920,-0.599440,0.106680,-0.601980,0.601980,-0.106680,0.599440,0.248920,0.0*
1,1,0.500000,0.424180,0.071120*
1,1,0.500000,0.071120,0.424180*
1,1,0.500000,-0.424180,-0.071120*
1,1,0.500000,-0.071120,-0.424180*
%
%AMD83*
4,1,4,0.774700,0.071120,0.071120,0.774700,-0.774700,-0.071120,-0.071120,-0.774700,0.774700,0.071120,0.0*
%
%AMD85*
4,1,8,-0.599440,-1.600200,0.599440,-1.600200,1.198880,-1.000760,1.198880,1.000760,0.599440,1.600200,-0.599440,1.600200,-1.198880,1.000760,-1.198880,-1.000760,-0.599440,-1.600200,0.0*
1,1,1.200000,-0.599440,-1.000760*
1,1,1.200000,0.599440,-1.000760*
1,1,1.200000,0.599440,1.000760*
1,1,1.200000,-0.599440,1.000760*
%
%ADD10C,0.200000*%
%ADD11C,0.399999*%
%ADD14C,0.127000*%
%ADD16C,0.150000*%
G04~CAMADD=61~8~0.0~0.0~866.1~866.1~173.2~0.0~15~0.0~0.0~0.0~0.0~0~0.0~0.0~0.0~0.0~0~0.0~0.0~0.0~90.0~866.0~866.0*
%ADD61D61*%
%ADD62O,1.599997X2.199996*%
%ADD63R,1.469997X0.279999*%
%ADD64R,0.279999X1.469997*%
G04~CAMADD=65~8~0.0~0.0~315.0~393.7~78.7~0.0~15~0.0~0.0~0.0~0.0~0~0.0~0.0~0.0~0.0~0~0.0~0.0~0.0~180.0~316.0~394.0*
%ADD65D65*%
G04~CAMADD=66~8~0.0~0.0~315.0~393.7~78.7~0.0~15~0.0~0.0~0.0~0.0~0~0.0~0.0~0.0~0.0~0~0.0~0.0~0.0~90.0~394.0~315.0*
%ADD66D66*%
%ADD67O,0.599999X1.999996*%
G04~CAMADD=68~8~0.0~0.0~393.7~472.4~98.4~0.0~15~0.0~0.0~0.0~0.0~0~0.0~0.0~0.0~0.0~0~0.0~0.0~0.0~90.0~472.0~394.0*
%ADD68D68*%
%ADD69R,1.199998X0.999998*%
%ADD70O,2.199996X1.599997*%
G04~CAMADD=71~8~0.0~0.0~472.4~708.7~118.1~0.0~15~0.0~0.0~0.0~0.0~0~0.0~0.0~0.0~0.0~0~0.0~0.0~0.0~90.0~708.0~472.0*
%ADD71D71*%
G04~CAMADD=72~8~0.0~0.0~393.7~472.4~98.4~0.0~15~0.0~0.0~0.0~0.0~0~0.0~0.0~0.0~0.0~0~0.0~0.0~0.0~0.0~393.7~472.4*
%ADD72D72*%
%ADD73R,3.199994X2.199996*%
%ADD74O,0.999998X2.199996*%
G04~CAMADD=75~8~0.0~0.0~629.9~866.1~157.5~0.0~15~0.0~0.0~0.0~0.0~0~0.0~0.0~0.0~0.0~0~0.0~0.0~0.0~0.0~629.9~866.1*
%ADD75D75*%
%ADD76R,1.599997X2.199996*%
G04~CAMADD=77~8~0.0~0.0~629.9~629.9~157.5~0.0~15~0.0~0.0~0.0~0.0~0~0.0~0.0~0.0~0.0~0~0.0~0.0~0.0~270.0~630.0~630.0*
%ADD77D77*%
G04~CAMADD=78~3~0.0~0.0~118.1~629.9~0.0~0.0~0~0.0~0.0~0.0~0.0~0~0.0~0.0~0.0~0.0~0~0.0~0.0~0.0~45.0~478.0~478.0*
%ADD78D78*%
G04~CAMADD=79~3~0.0~0.0~118.1~629.9~0.0~0.0~0~0.0~0.0~0.0~0.0~0~0.0~0.0~0.0~0.0~0~0.0~0.0~0.0~315.0~478.0~478.0*
%ADD79D79*%
G04~CAMADD=80~8~0.0~0.0~472.4~708.7~118.1~0.0~15~0.0~0.0~0.0~0.0~0~0.0~0.0~0.0~0.0~0~0.0~0.0~0.0~0.0~472.4~708.7*
%ADD80D80*%
G04~CAMADD=81~8~0.0~0.0~315.0~393.7~78.7~0.0~15~0.0~0.0~0.0~0.0~0~0.0~0.0~0.0~0.0~0~0.0~0.0~0.0~225.0~436.0~435.0*
%ADD81D81*%
G04~CAMADD=82~8~0.0~0.0~393.7~472.4~98.4~0.0~15~0.0~0.0~0.0~0.0~0~0.0~0.0~0.0~0.0~0~0.0~0.0~0.0~315.0~530.0~529.0*
%ADD82D82*%
G04~CAMADD=83~9~0.0~0.0~393.7~472.4~0.0~0.0~0~0.0~0.0~0.0~0.0~0~0.0~0.0~0.0~0.0~0~0.0~0.0~0.0~315.0~610.0~609.0*
%ADD83D83*%
%ADD84R,1.669997X0.759998*%
G04~CAMADD=85~8~0.0~0.0~944.9~1259.8~236.2~0.0~15~0.0~0.0~0.0~0.0~0~0.0~0.0~0.0~0.0~0~0.0~0.0~0.0~180.0~946.0~1260.0*
%ADD85D85*%
%ADD86R,0.999998X1.199998*%
%ADD87C,0.599999*%
%ADD88C,0.299999*%
%ADD89C,0.499999*%
%ADD90C,0.799998*%
%ADD91C,1.199998*%
%ADD92C,6.399987*%
%ADD93C,1.399997*%
%ADD94C,1.396997*%
%ADD95R,2.199996X1.599997*%
%ADD96O,4.499991X1.999996*%
%ADD97O,1.999996X4.499991*%
%ADD98R,1.267997X1.267997*%
%ADD99C,1.267997*%
%ADD100C,3.249993*%
%ADD101C,2.894994*%
%ADD102C,0.899998*%
%ADD103C,0.799998*%
%ADD104C,0.399999*%
%ADD105C,0.599999*%
%LNksz8851-1*%
%LPD*%
G36*
X99566Y67424D02*
X99442Y67399D01*
X99425Y6744*
X99183Y6786*
X98887Y68245*
X98544Y68588*
X98159Y68883*
X97739Y69125*
X97291Y69311*
X96823Y69436*
X96342Y695*
X96099*
X95857*
X95376Y69436*
X94908Y69311*
X94459Y69125*
X94039Y68883*
X93655Y68588*
X93312Y68245*
X93016Y6786*
X92774Y6744*
X92588Y66992*
X92559Y66884*
X92432Y66901*
Y6792*
X95479Y70966*
X96799*
X97106Y71093*
X98206Y72193*
X98332Y72499*
Y74999*
X98206Y75306*
X9748Y76031*
X97569Y76244*
X97283Y76933*
X96595Y77218*
X95906Y76933*
X9562Y76244*
X95906Y75555*
X96595Y7527*
X96893Y75394*
X97466Y7482*
Y74276*
X97342Y74252*
X97283Y74393*
X96595Y74678*
X95906Y74393*
X95757Y74034*
X95632Y74059*
Y75099*
X95506Y75405*
X94923Y75988*
X95029Y76244*
X94743Y76933*
X94055Y77218*
X93366Y76933*
X9308Y76244*
X93366Y75555*
X94055Y7527*
X9431Y75376*
X94766Y7492*
Y74521*
X94639Y74436*
X94055Y74678*
X93366Y74393*
X93357Y74372*
X93232Y74397*
Y75099*
X93106Y75406*
X92424Y76087*
X92489Y76244*
X92203Y76933*
X91515Y77218*
X90826Y76933*
X9054Y76244*
X90826Y75555*
X91515Y7527*
X9187Y75417*
X92366Y7492*
Y74325*
X92242Y743*
X92203Y74393*
X91515Y74678*
X90826Y74393*
X90757Y74227*
X90632Y74252*
Y75019*
X90506Y75325*
X89843Y75988*
X89949Y76244*
X89663Y76933*
X88975Y77218*
X88286Y76933*
X88Y76244*
X88286Y75555*
X88975Y7527*
X8923Y75376*
X89766Y7484*
Y74456*
X89639Y74403*
X88975Y74678*
X88286Y74393*
X88Y73704*
X88106Y73448*
X87992Y73334*
X87874Y73382*
Y75237*
X87748Y75543*
X87303Y75988*
X87409Y76244*
X87123Y76933*
X86435Y77218*
X85746Y76933*
X8546Y76244*
X85746Y75555*
X86435Y7527*
X8669Y75376*
X87008Y75058*
Y74555*
X86903Y74484*
X86435Y74678*
X85759Y74399*
X85632Y74446*
Y74939*
X85506Y75245*
X84763Y75988*
X84869Y76244*
X84583Y76933*
X83895Y77218*
X83206Y76933*
X8292Y76244*
X83206Y75555*
X83895Y7527*
X8415Y75376*
X84766Y7476*
Y74276*
X84642Y74252*
X84583Y74393*
X83895Y74678*
X83206Y74393*
X83157Y74275*
X83032Y74299*
Y74999*
X82906Y75305*
X82223Y75988*
X82329Y76244*
X82043Y76933*
X81355Y77218*
X80666Y76933*
X8038Y76244*
X80666Y75555*
X81355Y7527*
X8161Y75376*
X82167Y7482*
Y74428*
X82043Y74393*
X81355Y74678*
X80666Y74393*
X80657Y74372*
X80532Y74397*
Y74959*
X80406Y75265*
X79683Y75988*
X79789Y76244*
X79503Y76933*
X78815Y77218*
X78126Y76933*
X7784Y76244*
X78126Y75555*
X78815Y7527*
X7907Y75376*
X79666Y7478*
Y74325*
X79542Y743*
X79503Y74393*
X78815Y74678*
X78126Y74393*
X78011Y74116*
X77886Y74141*
Y75065*
X7776Y75371*
X77143Y75988*
X77249Y76244*
X76963Y76933*
X76275Y77218*
X75586Y76933*
X753Y76244*
X75586Y75555*
X76275Y7527*
X7653Y75376*
X7702Y74886*
Y74502*
X76893Y74422*
X76275Y74678*
X75586Y74393*
X75557Y74324*
X75432Y74348*
Y74979*
X75306Y75285*
X74603Y75988*
X74709Y76244*
X74423Y76933*
X73735Y77218*
X73046Y76933*
X7276Y76244*
X73046Y75555*
X73735Y7527*
X7399Y75376*
X74566Y748*
Y74373*
X74442Y74348*
X74423Y74393*
X73735Y74678*
X73059Y74399*
X72932Y74446*
Y74939*
X72806Y75245*
X72063Y75988*
X72169Y76244*
X71883Y76933*
X71195Y77218*
X70506Y76933*
X7022Y76244*
X70506Y75555*
X71195Y7527*
X7145Y75376*
X72066Y7476*
Y74276*
X71942Y74252*
X71883Y74393*
X71195Y74678*
X70506Y74393*
X70457Y74275*
X70332Y743*
Y74699*
X70206Y75006*
X69435Y75776*
X69629Y76244*
X69343Y76933*
X68655Y77218*
X67966Y76933*
X6768Y76244*
X67966Y75555*
X68655Y7527*
X68698Y75288*
X69445Y74541*
X69435Y74467*
X69306Y74409*
X68655Y74678*
X67966Y74393*
X6768Y73704*
X67966Y73015*
X68222Y72909*
Y71444*
X68348Y71138*
X69513Y69973*
X6982Y69846*
X7224*
X72795Y69291*
Y5615*
X72645Y55999*
X68499*
X65191Y52691*
X65074Y5274*
Y60979*
X6562Y61525*
X69568*
X69847Y6164*
X70969Y62762*
X71599*
X71944Y62905*
X72087Y63249*
Y63749*
X72009Y63938*
X72049Y63999*
Y64999*
Y66199*
X71605*
Y66552*
X71706Y66593*
X71832Y66899*
Y67499*
X71706Y67806*
X717Y67808*
X71683Y67953*
X71742Y68004*
X71849*
X7227Y68178*
X72445Y68599*
X7227Y6902*
X71849Y69195*
X7171*
X71706Y69206*
X71399Y69332*
X70999*
X70693Y69206*
X70566Y68899*
Y68299*
X70693Y67993*
X70767Y67963*
Y67836*
X70693Y67806*
X70566Y67499*
Y66899*
X70693Y66593*
X70794Y66552*
Y66199*
X70449*
Y64999*
Y63999*
X7049Y63938*
X70412Y63749*
Y63319*
X69405Y62312*
X67934*
X67886Y62429*
X68219Y62762*
X68849*
X69194Y62905*
X69337Y63249*
Y63749*
X69258Y63938*
X69299Y63999*
Y64999*
Y66199*
X68905*
Y66552*
X69006Y66593*
X69132Y66899*
Y67499*
X69006Y67806*
X69Y67808*
X68983Y67953*
X69042Y68004*
X69149*
X6957Y68178*
X69745Y68599*
X6957Y6902*
X69149Y69195*
X6901*
X69006Y69206*
X68699Y69332*
X68299*
X67993Y69206*
X67866Y68899*
Y68299*
X67993Y67993*
X68067Y67963*
Y67836*
X67993Y67806*
X67866Y67499*
Y66899*
X67993Y66593*
X68094Y66552*
Y66199*
X67699*
Y64999*
Y63999*
X6774Y63938*
X67662Y63749*
Y63319*
X67036Y62693*
X66514*
X66488Y6282*
X66694Y62905*
X66837Y63249*
Y63749*
X66758Y63938*
X66799Y63999*
Y64999*
Y66199*
X66405*
Y66552*
X66506Y66593*
X66632Y66899*
Y67499*
X66506Y67806*
X665Y67808*
X66483Y67953*
X66542Y68004*
X66649*
X6707Y68178*
X67245Y68599*
X6707Y6902*
X66649Y69195*
X6651*
X66506Y69206*
X66199Y69332*
X65799*
X65493Y69206*
X65367Y68899*
Y68299*
X65493Y67993*
X65567Y67963*
Y67836*
X65493Y67806*
X65367Y67499*
Y66899*
X65493Y66593*
X65594Y66552*
Y66199*
X65199*
Y64999*
Y63999*
X6524Y63938*
X65162Y63749*
Y63319*
X6401Y62167*
X63893Y62215*
Y6278*
X64194Y62905*
X64337Y63249*
Y63749*
X64258Y63938*
X64299Y63999*
Y64999*
Y66199*
X63855*
Y66552*
X63956Y66593*
X64082Y66899*
Y67499*
X63956Y67806*
X6395Y67808*
X63932Y67953*
X63992Y68004*
X64099*
X6452Y68178*
X64695Y68599*
X6452Y6902*
X64099Y69195*
X6396*
X63956Y69206*
X63649Y69332*
X63249*
X62943Y69206*
X62816Y68899*
Y68299*
X62943Y67993*
X63017Y67963*
Y67836*
X62943Y67806*
X62816Y67499*
Y66899*
X62943Y66593*
X63044Y66552*
Y66199*
X62699*
Y64999*
Y63999*
X6274Y63938*
X62662Y63749*
Y63249*
X62805Y62905*
X63106Y6278*
Y52977*
X62979Y52952*
X62915Y53106*
X57935Y58086*
X57648Y58205*
X38833*
X38546Y58086*
X37396Y56937*
X37278Y5665*
Y56061*
X3716Y56013*
X36886Y56286*
X36688Y56369*
X36682Y56382*
X36299Y56541*
X35917Y56382*
X35758Y55999*
X35917Y55617*
X36299Y55458*
X36488Y55536*
X3669Y55335*
Y54017*
X36563Y53932*
X36299Y54041*
X35973Y53905*
X3573*
X35606Y54206*
X35299Y54332*
X34899*
X34593Y54206*
X3451Y54005*
X34289*
X34206Y54206*
X33899Y54332*
X33499*
X33193Y54206*
X33067Y53899*
Y53299*
X33156Y53084*
X33071Y52957*
X32713*
X31535Y54135*
X31Y54357*
X27413*
X27335Y54435*
X26799Y54657*
X06657*
Y59486*
X07335Y60164*
X07557Y60699*
X07335Y61235*
X06799Y61457*
X06264Y61235*
X05364Y60335*
X05142Y59799*
Y58498*
X05015Y58438*
X04591Y58614*
X04476Y58566*
X04444Y58644*
X04099Y58787*
X03599*
X03411Y58708*
X03349Y58749*
X02349*
X02282Y58849*
Y5905*
X02349Y59149*
X03349*
X04549*
Y59429*
X04882Y59567*
X05041Y59949*
X04882Y60332*
X04549Y6047*
Y60749*
X03349*
X02349*
X02288Y60708*
X02099Y60786*
X01599*
X01255Y60644*
X01112Y60299*
Y59599*
X01255Y59255*
X01416Y59188*
Y58711*
X01255Y58644*
X01112Y58299*
Y57599*
X01255Y57255*
X01599Y57112*
X02099*
X02288Y5719*
X02349Y5715*
X03349*
X03411Y5719*
X03599Y57112*
X04099*
X04444Y57255*
X04487Y57358*
X04591Y57315*
X05015Y5749*
X05142Y5743*
Y56248*
X05015Y56188*
X04591Y56364*
X04476Y56316*
X04444Y56394*
X04099Y56536*
X03599*
X03411Y56458*
X03349Y56499*
X02349*
X02288Y56458*
X02099Y56536*
X01599*
X01255Y56394*
X01112Y56049*
Y55349*
X01255Y55005*
X01416Y54938*
Y54461*
X01255Y54394*
X01112Y54049*
Y53349*
X01255Y53005*
X01599Y52862*
X02099*
X02288Y5294*
X02349Y52899*
X03349*
X04549*
Y53142*
X26486*
X26564Y53064*
X271Y52842*
X28836*
X28906Y52736*
X28852Y52605*
X28099*
X27812Y52486*
X27693Y52199*
X27812Y51912*
X28099Y51793*
X28852*
X28952Y51552*
X29299Y51408*
X29372*
Y52199*
X29499*
Y52326*
X30191*
Y52499*
X30093Y52736*
X30163Y52842*
X30686*
X31864Y51664*
X32399Y51442*
X33699*
X33759Y51466*
X33899*
X34206Y51593*
X34235Y51663*
X34235Y51664*
X34339Y51915*
X3445Y51901*
X34468Y51895*
X34593Y51593*
X34899Y51466*
X35299*
X35606Y51593*
X35689Y51794*
X35973*
X36299Y51658*
X36563Y51767*
X3669Y51682*
Y48503*
X36808Y48216*
X37794Y47231*
X37722Y47123*
X37699Y47132*
X37099*
X36793Y47006*
X36763Y46932*
X36636*
X36606Y47006*
X36299Y47132*
X35699*
X35393Y47006*
X35266Y46699*
Y46433*
X35139Y46381*
X34899Y46621*
Y47224*
X32829*
Y46081*
Y46064*
Y45954*
Y4576*
X32571Y45653*
X32271Y45353*
X32156Y45074*
Y3916*
X321Y39024*
X32156Y38889*
Y35549*
X32271Y35271*
X33177Y34365*
X3315Y34299*
Y33499*
X3322Y3333*
X33199Y33299*
Y31699*
X3322Y31669*
X3315Y31499*
Y30699*
X3334Y3024*
X33799Y3005*
X33857*
X34199Y29908*
X34542Y3005*
X34599*
X35059Y3024*
X35249Y30699*
Y31499*
X35179Y31669*
X35199Y31699*
Y33299*
X35179Y3333*
X35249Y33499*
Y33506*
X35658*
Y33261*
X35599*
Y31737*
X356*
Y31326*
X36499*
Y31199*
X36626*
Y3*
X36799*
X37223Y30175*
X37399Y30599*
Y30653*
X37609Y3074*
X37799Y31199*
X37609Y31659*
X37399Y31745*
Y33261*
X37341*
Y34384*
X38087Y3513*
X38204Y35082*
Y34699*
X38364Y34314*
X3839Y34303*
X3854Y3394*
X38999Y3375*
X39459Y3394*
X39587Y34249*
X40499*
X40561Y3429*
X40749Y34212*
X40854*
X40903Y34095*
X39962Y33154*
X39844Y32867*
Y29749*
X39962Y29462*
X40462Y28962*
X40749Y28844*
X49331*
X53262Y24912*
X53549Y24794*
X54573*
X54899Y24658*
X55226Y24794*
X57499*
X57786Y24912*
X58386Y25512*
X58505Y25799*
Y2601*
X58706Y26093*
X58832Y26399*
Y26799*
X58706Y27106*
X58399Y27232*
X57799*
X57493Y27106*
X57463Y27032*
X57336*
X57306Y27106*
X57241Y27132*
Y30299*
X57082Y30682*
X56182Y31582*
X55799Y31741*
X53099*
X52717Y31582*
X52558Y31199*
X52717Y30817*
X53099Y30658*
X53217*
X53242Y30534*
X52834Y30365*
X5267Y2997*
X52499Y30041*
X52117Y29882*
X51958Y29499*
X52117Y29117*
X52499Y28958*
X52741Y29058*
X52834Y28834*
X53599Y28517*
X54199*
X54965Y28834*
X55282Y29599*
X54965Y30365*
X54557Y30534*
X54582Y30658*
X55575*
X56158Y30075*
Y27141*
X54999*
X54617Y26982*
X54317Y26682*
X54158Y26299*
X54317Y25917*
X54596Y25801*
X54611Y25659*
X54546Y25605*
X53718*
X49786Y29536*
X49499Y29655*
X40918*
X40655Y29918*
Y32699*
X43226Y3527*
X43344Y35222*
Y32447*
X43137Y32362*
X42884Y3175*
X43137Y31137*
X43749Y30884*
X44362Y31137*
X44615Y3175*
X44362Y32362*
X44155Y32447*
Y35492*
X45732Y37069*
X45759Y37134*
X45874Y37249*
X45991Y37201*
Y36679*
X4587Y36629*
X4467Y35429*
X44575Y35199*
Y34099*
X4467Y3387*
X44899Y33775*
X47699*
X47929Y3387*
X48024Y34099*
Y35907*
X48142Y35956*
X48316Y35781*
Y32436*
X48137Y32362*
X47884Y3175*
X48137Y31137*
X48749Y30884*
X49362Y31137*
X49615Y3175*
X49362Y32362*
X49182Y32436*
Y3596*
X49056Y36266*
X48789Y36533*
X48861Y36641*
X48999Y36583*
X49382Y36742*
X4954Y37124*
X49699Y37058*
X50082Y37217*
X50147Y37374*
X50272Y37399*
X50486Y37186*
X52372Y35299*
X52699Y34972*
X5269Y3495*
X52699Y34927*
X52571Y34799*
X52555Y34815*
X52349Y34318*
X5251Y33929*
Y33929*
X52523Y33898*
X52555Y3382*
X52664Y33775*
X53053Y33614*
X53383Y33751*
X53531Y33394*
X53531Y33394*
X53542Y33367*
X53576Y33285*
X53576*
X53684Y33241*
X54073Y33079*
X54386Y33209*
X54462Y33178*
X54485Y33187*
X54659Y33012*
X54946Y32894*
X56151*
X56438Y33012*
X5666Y33235*
X57218*
X57545Y33099*
X57927Y33258*
X57982Y3339*
X62999*
Y26018*
X5944Y22459*
X5925Y21999*
Y13574*
X58899*
X5867Y13479*
X5842Y13229*
X58325Y12999*
Y11584*
X58217Y11476*
X58099Y11525*
Y11699*
X58095Y11707*
X58195Y11949*
Y12072*
X57299*
Y12199*
X57172*
Y12995*
X56949*
X56564Y12835*
X56553Y12809*
X5619Y12659*
X56052Y12656*
X53979Y14729*
X53749Y14824*
X45999*
X4593Y14795*
X45824Y14866*
Y15249*
X45729Y15479*
X45229Y15979*
X44999Y16074*
X34249*
X3402Y15979*
X3377Y15729*
X33675Y15499*
Y13249*
X33726Y13126*
X3377Y1302*
X3402Y1277*
X34131Y12724*
X34249Y12675*
X39249*
X39479Y1277*
X39557Y12848*
X39675Y128*
Y11134*
X38365Y09824*
X32024*
Y15099*
X31929Y15329*
X31699Y15424*
X22299*
Y27625*
X24099*
X24329Y2772*
X24424Y27949*
Y34449*
X24329Y34679*
X24099Y34774*
X22849*
X2262Y34679*
X22417Y34476*
X22299Y34525*
Y388*
X22417Y38849*
X2271Y38556*
X22988Y3844*
X23793*
X23904Y38174*
X24299Y37778*
Y37174*
X26369*
Y38291*
X26476Y38385*
X26499Y38375*
X26959Y38565*
X27149Y39024*
X26959Y39484*
X26499Y39674*
X26476Y39664*
X26369Y39757*
Y40857*
Y40874*
Y40984*
Y41001*
Y42127*
Y42144*
Y42254*
Y42271*
Y43397*
Y43414*
Y43524*
Y43541*
Y44641*
X26476Y44735*
X26499Y44725*
X26959Y44915*
X27149Y45374*
X26959Y45834*
X26499Y46024*
X26476Y46014*
X26369Y46107*
Y47224*
X24299*
Y46621*
X23904Y46225*
X23793Y45958*
X22299*
Y50599*
X11149*
X11054Y50829*
X10824Y50924*
X06096*
X06037Y51012*
X05492Y51376*
X04849Y51504*
X04207Y51376*
X03662Y51012*
X03603Y50924*
X00432*
Y73278*
X00559Y73312*
X00716Y7304*
X01012Y72655*
X01355Y72312*
X01739Y72017*
X02159Y71774*
X02608Y71589*
X03076Y71463*
X03557Y714*
X03799*
X04042*
X04523Y71463*
X04991Y71589*
X05439Y71774*
X05859Y72017*
X06244Y72312*
X06587Y72655*
X06882Y7304*
X07125Y7346*
X07311Y73908*
X07436Y74376*
X07499Y74857*
Y751*
Y75342*
X07436Y75823*
X07311Y76292*
X07125Y7674*
X06883Y7716*
X06587Y77545*
X06244Y77888*
X05859Y78183*
X05439Y78425*
X05104Y78564*
X05129Y78691*
X99566*
Y67424*
G37*
G36*
X92588Y64608D02*
X92774Y6416D01*
X93016Y6374*
X93312Y63355*
X93655Y63012*
X94039Y62717*
X94459Y62474*
X94908Y62289*
X95376Y62163*
X95857Y621*
X96099*
X96342*
X96823Y62163*
X97291Y62289*
X97739Y62474*
X98159Y62717*
X98544Y63012*
X98887Y63355*
X99182Y6374*
X99425Y6416*
X99442Y64201*
X99566Y64176*
Y55999*
X98364*
X98333Y56074*
X97832Y56281*
Y56408*
X98333Y56616*
X98582Y57218*
X97604*
Y57472*
X98582*
X98333Y58074*
X97832Y58281*
Y58408*
X98333Y58616*
X98582Y59218*
X97604*
Y59345*
X97477*
Y60323*
X96875Y60074*
X96638Y59502*
X96511*
X96292Y60033*
X95604Y60317*
X94916Y60033*
X94631Y59345*
X94916Y58657*
X95504Y58414*
Y58276*
X94916Y58033*
X94631Y57345*
X94916Y56657*
X95504Y56414*
Y56276*
X94916Y56033*
X94902Y55999*
X92828*
Y56291*
X92846*
X92663Y56733*
X92222Y56916*
X9178Y56733*
X91597Y56291*
X91615*
Y55999*
X89908*
X89882Y5601*
X87517*
X8749Y55999*
X86632*
Y5632*
X92306Y61993*
X92432Y62299*
Y64699*
X92559Y64716*
X92588Y64608*
G37*
G36*
X55292Y44414D02*
X55316Y44289D01*
X55193Y44166*
X55087Y44092*
X54881Y43594*
X55042Y43206*
X55042Y43205*
X55087Y43097*
X55196Y43052*
X55585Y42891*
X56082Y43097*
X56066Y43113*
X56279Y43326*
X56404Y43301*
X56534Y42988*
X5664Y42914*
X57492Y42061*
X57512Y42012*
X58762Y40762*
X59049Y40644*
X62123*
X62449Y40508*
X62832Y40667*
X62872Y40764*
X62999Y40739*
Y38573*
X62718Y38292*
X62599Y38341*
X62481Y38292*
X62086Y38686*
X61799Y38805*
X58068*
X56597Y40276*
X5631Y40395*
X54936*
X54927Y40417*
X54905Y40426*
Y40783*
X54927*
X54721Y41281*
X54332Y41442*
X54224Y41487*
X54115Y41442*
X54115*
X538Y41311*
X53642Y41362*
X53621Y41412*
X53232Y41573*
X53124Y41618*
Y41618*
X53015Y41573*
X53015*
X52626Y41412*
X5242Y40914*
X52443*
Y40785*
X52326Y40736*
X5153Y41532*
X51465Y41559*
X51051Y41972*
X50872Y42047*
X50842Y42197*
X50987Y42341*
X51093Y42385*
X51463Y42755*
X51153Y43064*
X51333Y43244*
X51642Y42935*
X52012Y43304*
X5214Y43614*
X52129Y43641*
X522Y438*
X52482Y43917*
X52641Y44299*
X52604Y44388*
X52675Y44494*
X55098*
X55292Y44414*
G37*
G36*
X41269Y42867D02*
X41334Y4284D01*
X41748Y42427*
X41927Y42352*
X41957Y42202*
X41812Y42057*
X41706Y42014*
X41336Y41644*
X41646Y41335*
X41466Y41155*
X41157Y41464*
X40787Y41094*
X40732Y40963*
X40605Y40988*
Y42599*
X40486Y42886*
X40005Y43368*
Y43964*
X40123Y44013*
X41269Y42867*
G37*
G36*
X10824Y39699D02*
X00399D01*
Y50599*
X10824*
Y39699*
G37*
G36*
X50349Y42249D02*
X46349Y38249D01*
X42399Y42199*
X45299Y45099*
X46299*
X46899Y45699*
X50349Y42249*
G37*
G36*
X47699Y34099D02*
X44899D01*
Y35199*
X46099Y36399*
X47699*
Y34099*
G37*
G36*
X88499Y46599D02*
X86599D01*
X85999Y45999*
Y42999*
X84999Y41999*
Y41099*
X85499Y40599*
X88499*
Y30799*
X78099*
Y33999*
X74249*
X73749Y34499*
Y39999*
X71249*
X70749Y39499*
Y38999*
X71249Y38499*
Y37499*
X70499Y36749*
Y35999*
X73249Y33249*
X76999*
X77249Y32999*
Y31999*
X76249Y30749*
X69749*
Y48999*
X70499Y49749*
X71249*
X88499*
Y46599*
G37*
G36*
X24099Y27949D02*
X21349D01*
Y32949*
X22849Y34449*
X24099*
Y27949*
G37*
G36*
X80599Y23399D02*
X78099Y22799D01*
X77299*
Y23699*
X78399Y24699*
X80599*
Y23399*
G37*
G36*
X69624Y23649D02*
X69449Y23474D01*
X68824*
X68399Y23049*
Y21399*
X68699Y21099*
X69199*
X69599Y20699*
Y19599*
X70399Y18799*
X71699*
X73299Y20399*
Y25699*
X75499*
X75699Y25499*
X76699Y24499*
Y23699*
Y22799*
Y22399*
Y21499*
Y19399*
X75299Y17999*
X70399*
X67149*
Y25149*
X67724Y25724*
X69624*
Y23649*
G37*
G36*
X45499Y15249D02*
Y13249D01*
X42999*
X42249Y13999*
X40249*
X39249Y12999*
X34249*
X33999Y13249*
Y15499*
X34249Y15749*
X44999*
X45499Y15249*
G37*
G36*
X62999Y24015D02*
Y11331D01*
X62894Y1126*
X62799Y11299*
X62218*
X62147Y11405*
X62197Y11523*
X62535Y11664*
X62695Y12049*
Y12272*
X61899*
Y12399*
X61772*
Y13295*
X61649*
X61407Y13194*
X61399Y13199*
X60741*
X60729Y13229*
X60549Y13409*
Y2173*
X62882Y24064*
X62999Y24015*
G37*
G36*
X86599Y19899D02*
X88949Y17549D01*
X94199*
Y16799*
X92499Y15099*
Y11199*
X90499*
Y16699*
X89999Y17199*
X87174*
X86599Y17774*
X77299*
Y21499*
Y22399*
X84099*
X86599Y19899*
G37*
G36*
X47799Y09699D02*
X46399D01*
Y12599*
X47799*
Y09699*
G37*
G36*
X45499Y07249D02*
X43249D01*
Y12249*
X45499*
Y07249*
G37*
G36*
X55849Y12399D02*
Y06899D01*
X53799*
Y13199*
X53424Y13574*
X50824*
X50499Y13249*
Y11749*
X48749*
X48499Y11999*
Y12899*
X47899Y13499*
X45999*
Y14499*
X53749*
X55849Y12399*
G37*
G36*
X60499Y12999D02*
Y06749D01*
X58899*
Y08749*
X58149Y09499*
X56399*
Y10499*
X56699Y10799*
X57999*
X58649Y11449*
Y12999*
X58899Y13249*
X60249*
X60499Y12999*
G37*
G36*
X52999Y13099D02*
Y06749D01*
X51499*
Y08749*
X50649Y09599*
X48999*
Y10499*
X49299Y10799*
X50599*
X51249Y11449*
Y13049*
X51449Y13249*
X52849*
X52999Y13099*
G37*
G36*
X50499Y08999D02*
Y06749D01*
X51049Y06199*
X55699*
X56599Y07099*
Y08899*
X56899Y09199*
X57899*
X58199Y08899*
Y06499*
X57199Y05499*
X49355*
X48699Y04843*
Y01199*
X48499Y00999*
X45999*
Y02249*
X45249Y02999*
X43499*
X43249Y03249*
Y05499*
X45749*
X46349Y04899*
X47899*
X47999Y04999*
Y07249*
X47749Y07499*
X46499*
X46249Y07749*
Y08749*
X48749*
X49249Y09249*
X50249*
X50499Y08999*
G37*
G36*
X31699Y09499D02*
X38499D01*
X39999Y10999*
Y12999*
X40499Y13499*
X41999*
X42499Y12999*
Y03999*
X39099Y00599*
X21499*
Y09499*
Y15099*
X31699*
Y09499*
G37*
G36*
X42925Y0391D02*
Y03249D01*
X4302Y0302*
X4327Y0277*
X43404Y02714*
X43404Y02714*
X43404Y02577*
X43275Y02523*
X43223Y02396*
X4289Y02259*
X427Y01799*
X4289Y0134*
X43223Y01202*
X43275Y01075*
X43699Y009*
X44172*
Y01799*
X44426*
Y009*
X44837*
Y00899*
X45716*
X4577Y0077*
X45999Y00675*
X48499*
X48729Y0077*
X48929Y0097*
X49024Y01199*
Y03099*
X50327*
X50397Y02994*
X50358Y02899*
X50499Y02559*
Y00499*
X504Y00432*
X39558*
X39509Y0055*
X42729Y0377*
X42798Y03936*
X42925Y0391*
G37*
G36*
X14549Y35974D02*
X17474D01*
X19999Y33449*
Y00399*
X07599*
Y06199*
X05899Y07899*
X00374*
Y39699*
X10824*
X14549Y35974*
G37*
%LNksz8851-2*%
%LPC*%
G36*
X30191Y52072D02*
X29626D01*
Y51408*
X29699*
X30047Y51552*
X30191Y51899*
Y52072*
G37*
G36*
X36372Y31072D02*
X356D01*
Y30599*
X35775Y30175*
X36199Y3*
X36372*
Y31072*
G37*
G36*
X60772Y3074D02*
X60599D01*
X59793Y30406*
X59511Y29726*
X60772*
Y3074*
G37*
G36*
X61199D02*
X61026D01*
Y29599*
Y28459*
X61199*
X62006Y28793*
X62114Y29054*
X62384Y29165*
X62574Y29624*
X62384Y30084*
X62089Y30206*
X62006Y30406*
X61199Y3074*
G37*
G36*
X60772Y29472D02*
X59511D01*
X59793Y28793*
X60599Y28459*
X60772*
Y29472*
G37*
G36*
X57649Y12995D02*
X57426D01*
Y12326*
X58195*
Y12449*
X58035Y12835*
X57649Y12995*
G37*
G36*
X97731Y60323D02*
Y59472D01*
X98582*
X98333Y60074*
X97731Y60323*
G37*
G36*
X62149Y13295D02*
X62026D01*
Y12526*
X62695*
Y12749*
X62535Y13135*
X62149Y13295*
G37*
%LNksz8851-3*%
%LPD*%
G54D10*
X48749Y3175D02*
Y3596D01*
X47354Y37356D02*
X48749Y3596D01*
X46424Y36074D02*
Y38524D01*
X77745Y31645D02*
Y33053D01*
X77195Y33603D02*
X77745Y33053D01*
X73003Y34295D02*
X73695Y33603D01*
X77195*
X76899Y30799D02*
X77745Y31645D01*
X72999Y34295D02*
X73003D01*
X81355Y06269D02*
Y0813D01*
X80099Y04984D02*
X81355Y03729D01*
X80099Y04984D02*
Y11299D01*
X78234Y08365D02*
X78815Y07784D01*
Y06269D02*
Y07784D01*
X78234Y08365D02*
Y14465D01*
X81355Y0813D02*
X88824Y15599D01*
Y15899*
X80099Y11299D02*
X83799Y14999D01*
X87732Y4448D02*
X87802Y44549D01*
X86599Y43888D02*
X86599Y43887D01*
X87961Y46103D02*
X88015Y46049D01*
X8766Y45049D02*
X89669D01*
X87388Y4448D02*
X87732D01*
X86599Y43887D02*
X87782D01*
X86835Y45007D02*
X86846Y44995D01*
X86849Y46115D02*
X86861Y46103D01*
X87782Y43887D02*
X87944Y44049D01*
X87606Y44995D02*
X8766Y45049D01*
X87944Y44049D02*
X89669D01*
X86861Y46103D02*
X87961D01*
X87349Y44441D02*
X87388Y4448D01*
X87802Y44549D02*
X89669D01*
X86846Y44995D02*
X87606D01*
X88015Y46049D02*
X89669D01*
X87399Y43299D02*
X88119D01*
X88369Y43549*
X89669*
X86003Y41049D02*
X89669D01*
X85899Y41099D02*
X85953D01*
X86003Y41049*
X87349Y42557D02*
X87353Y42553D01*
X86699Y42199D02*
X86895Y42003D01*
X80424Y54616D02*
Y61224D01*
X79049Y5324D02*
X80424Y54616D01*
X79049Y524D02*
Y5324D01*
X78349Y53295D02*
X79474Y5442D01*
Y54449*
X76749Y52533D02*
X7997Y55754D01*
X76249Y52675D02*
X79399Y55825D01*
X78299Y55367D02*
Y72864D01*
X75749Y52817D02*
X78299Y55367D01*
X77453Y55163D02*
Y75065D01*
X75249Y52959D02*
X77453Y55163D01*
X75249Y50969D02*
Y52959D01*
X75749Y50969D02*
Y52817D01*
X79399Y55825D02*
Y72099D01*
X76249Y50969D02*
Y52675D01*
X7997Y55754D02*
Y6142D01*
X76749Y50969D02*
Y52533D01*
X87349Y45549D02*
X89669D01*
X85499Y41699D02*
X86199D01*
X86349Y41549*
X87353Y42553D02*
X89665D01*
X86349Y41549D02*
X89669D01*
X89665Y42553D02*
X89669Y42549D01*
X86895Y42003D02*
X87803D01*
X87849Y42049*
X89669*
X78349Y52449D02*
Y53295D01*
X76275Y76244D02*
D01*
X73749Y52249D02*
X76999Y55499D01*
Y71499*
X73749Y50969D02*
Y52249D01*
X79049Y524D02*
X79249Y52199D01*
Y50969D02*
Y52199D01*
X76275Y76244D02*
X77453Y75065D01*
X87999Y64041D02*
Y72729D01*
X82749Y58791D02*
X87999Y64041D01*
Y72729D02*
X88975Y73704D01*
X95299Y71399D02*
X96799D01*
X91999Y68099D02*
X95299Y71399D01*
X91999Y62299D02*
Y68099D01*
X91503Y68403D02*
X96595Y73495D01*
Y73704*
X91503Y62505D02*
Y68403D01*
X95199Y72899D02*
Y75099D01*
X90999Y68699D02*
X95199Y72899D01*
X90999Y62899D02*
Y68699D01*
X94055Y73399D02*
Y73704D01*
X94004Y73349D02*
X94055Y73399D01*
X94004Y72704D02*
Y73349D01*
X90399Y69099D02*
X94004Y72704D01*
X90399Y63007D02*
Y69099D01*
X92799Y72699D02*
Y75099D01*
X89799Y69699D02*
X92799Y72699D01*
X89799Y635D02*
Y69699D01*
X91504Y73694D02*
X91515Y73704D01*
X91504Y72704D02*
Y73694D01*
X89117Y70317D02*
X91504Y72704D01*
X88975Y76244D02*
X90199Y75019D01*
Y72599D02*
Y75019D01*
X88549Y70949D02*
X90199Y72599D01*
X88549Y63949D02*
Y70949D01*
X89117Y63524D02*
Y70317D01*
X85703Y52495D02*
Y56705D01*
X91503Y62505*
X86199Y52699D02*
Y56499D01*
X91999Y62299*
X84749Y57357D02*
X90399Y63007D01*
X84749Y50969D02*
Y57357D01*
X85249Y50969D02*
Y5715D01*
X90999Y62899*
X83749Y58157D02*
X89117Y63524D01*
X83749Y50969D02*
Y58157D01*
X84249Y50969D02*
Y57949D01*
X89799Y635*
X82749Y50969D02*
Y58791D01*
X83249Y58649D02*
X88549Y63949D01*
X83249Y50969D02*
Y58649D01*
X81811Y5217D02*
Y59653D01*
X86435Y64277D02*
Y73704D01*
X81811Y59653D02*
X86435Y64277D01*
X82296Y52012D02*
Y59495D01*
X87441Y64641D02*
Y75237D01*
X82296Y59495D02*
X87441Y64641D01*
X80899Y53899D02*
Y60641D01*
X83895Y63637D02*
Y73704D01*
X80899Y60641D02*
X83895Y63637D01*
X81357Y53657D02*
Y60457D01*
X85199Y64299*
Y74939*
X81355Y62805D02*
Y73704D01*
X7997Y6142D02*
X81355Y62805D01*
X80424Y61224D02*
X82599Y63399D01*
Y74299*
X79399Y72099D02*
X80099Y72799D01*
X96799Y71399D02*
X97899Y72499D01*
Y74999*
X96595Y76244D02*
X96655D01*
X97899Y74999*
X94055Y76244D02*
X95199Y75099D01*
X86435Y76244D02*
X87441Y75237D01*
X91515Y76244D02*
X91655D01*
X92799Y75099*
X82249Y51966D02*
X82296Y52012D01*
X83895Y76244D02*
X85199Y74939D01*
X80703Y53003D02*
X81357Y53657D01*
X80249Y50969D02*
Y53249D01*
X80899Y53899*
X80749Y50969D02*
Y52094D01*
X80703Y5214D02*
X80749Y52094D01*
X80703Y5214D02*
Y53003D01*
X81749Y52108D02*
X81811Y5217D01*
X82249Y50969D02*
Y51966D01*
X81749Y50969D02*
Y52108D01*
X82599Y74299D02*
Y74999D01*
X81355Y76244D02*
X82599Y74999D01*
Y74299D02*
D01*
X80099Y72799D02*
Y74959D01*
X78815Y76244D02*
X80099Y74959D01*
X78815Y73379D02*
Y73704D01*
X78299Y72864D02*
X78815Y73379D01*
X76275Y72224D02*
X76999Y71499D01*
X76275Y72224D02*
Y73704D01*
X74999Y72399D02*
X76299Y71099D01*
Y55507D02*
Y71099D01*
X74999Y72399D02*
Y74979D01*
X73249Y52457D02*
X76299Y55507D01*
X75542Y55457D02*
Y70857D01*
X73735Y72664D02*
X75542Y70857D01*
X73735Y72664D02*
Y73704D01*
X74299Y55628D02*
Y69999D01*
X74899Y55521D02*
Y70499D01*
X73228Y55971D02*
Y69471D01*
X72499Y70999D02*
X73799Y69699D01*
X72499Y72899D02*
X74899Y70499D01*
X71199Y70999D02*
X72499D01*
X7242Y70279D02*
X73228Y69471D01*
X73799Y55835D02*
Y69699D01*
X72499Y71799D02*
X74299Y69999D01*
X71699Y71799D02*
X72499D01*
X6982Y70279D02*
X7242D01*
X72499Y72899D02*
Y74939D01*
X73735Y76244D02*
X74999Y74979D01*
X72749Y52664D02*
X75542Y55457D01*
X72249Y52871D02*
X74899Y55521D01*
X69899Y72299D02*
X71199Y70999D01*
X71249Y53285D02*
X73799Y55835D01*
X68655Y71444D02*
X6982Y70279D01*
X71249Y50969D02*
Y53285D01*
X71195Y76244D02*
X72499Y74939D01*
X71195Y72304D02*
Y73704D01*
Y72304D02*
X71699Y71799D01*
X71749Y53078D02*
X74299Y55628D01*
X69899Y72299D02*
Y74699D01*
X68655Y75944D02*
Y76244D01*
Y75944D02*
X69899Y74699D01*
X68655Y71444D02*
Y73704D01*
X70749Y53492D02*
X73228Y55971D01*
X70749Y50969D02*
Y53492D01*
X71749Y50969D02*
Y53078D01*
X72249Y50969D02*
Y52871D01*
X72749Y50969D02*
Y52664D01*
X73249Y50969D02*
Y52457D01*
X85703Y52495D02*
X86249Y51949D01*
X86749Y50969D02*
Y52149D01*
X86199Y52699D02*
X86749Y52149D01*
X86249Y50969D02*
Y51949D01*
X87249Y53149D02*
X87299Y53199D01*
X87249Y50969D02*
Y53149D01*
X87749Y52149D02*
X88699Y53099D01*
X87749Y50969D02*
Y52149D01*
X88699Y53099D02*
Y53199D01*
X03849Y57949D02*
X03864Y57964D01*
X04591*
X45091Y4669D02*
X45981Y45799D01*
X46099Y47698D02*
Y48199D01*
X45445Y47043D02*
X46099Y47698D01*
X45445Y47043D02*
D01*
X03864Y55714D02*
X04591D01*
X01849Y57949D02*
Y59949D01*
Y53699D02*
Y55699D01*
G54D11*
X59899Y11774D02*
Y12399D01*
X59799Y11674D02*
X59899Y11774D01*
X78426Y27323D02*
Y28323D01*
Y27323D02*
X79249Y26499D01*
X78249Y28499D02*
X78426Y28323D01*
X80499Y26499D02*
X81799Y25199D01*
X79249Y26499D02*
X80499D01*
X81799Y25199D02*
X82599D01*
X83199Y25799*
X91467Y40032D02*
X91799Y39699D01*
X90699Y40032D02*
X91467D01*
X91799Y38899D02*
Y39699D01*
X90999Y381D02*
X91799Y38899D01*
X55799Y31199D02*
X56699Y30299D01*
X53099Y31199D02*
X55799D01*
X56699Y26599D02*
Y30299D01*
X54699Y26299D02*
X54999Y26599D01*
X56699*
G54D14*
X92435Y55558D02*
X92649Y55345D01*
X92435Y56291D02*
X92328Y56476D01*
X92115*
X92008Y56291*
X91795Y55345D02*
X92008Y55558D01*
X92198Y54799D02*
X91984Y54586D01*
X91557Y54586D02*
X91664Y54401D01*
X91878*
X91984Y54586*
X91557Y5475D02*
X91451Y54935D01*
X91237*
X9113Y5475*
X90703Y54091D02*
X9081Y53907D01*
X91024*
X9113Y54091*
X90703Y54586D02*
X9049Y54799D01*
X17023Y45828D02*
X17242Y45871D01*
X17428Y45995*
X17551Y46181*
X17595Y46399*
X17976Y46489D02*
X17785Y46679D01*
X17595Y46489*
X17976Y46399D02*
X18019Y46181D01*
X18143Y45995*
X18329Y45871*
X18547Y45828*
X17023Y46209D02*
X17214Y46399D01*
X18357Y46489D02*
X183Y46737D01*
X18142Y46936*
X17913Y47046*
X17658*
X17429Y46936*
X17271Y46737*
X17214Y46489*
X18357Y46399D02*
X18547Y46209D01*
X39969Y37602D02*
X39923Y37829D01*
X39794Y38022*
X39602Y38151*
X39374Y38196*
X39969Y37384D02*
X40075Y37199D01*
X40289*
X40396Y37384*
X41585Y37901D02*
X41526Y38158D01*
X41361Y38365*
X41122Y3848*
X40858*
X40619Y38365*
X40454Y38158*
X40396Y37901*
X41585Y37384D02*
X41691Y37199D01*
X41905*
X42012Y37384*
X42606Y38196D02*
X42379Y38151D01*
X42186Y38022*
X42057Y37829*
X42012Y37602*
X39588D02*
X39374Y37815D01*
X39588Y37384D02*
X39646Y37126D01*
X39811Y36919*
X4005Y36804*
X40314*
X40553Y36919*
X40718Y37126*
X40777Y37384*
X41204Y37901D02*
X41097Y38085D01*
X40883*
X40777Y37901*
X41204Y37384D02*
X41262Y37126D01*
X41427Y36919*
X41666Y36804*
X4193*
X42169Y36919*
X42334Y37126*
X42393Y37384*
X42606Y37815D02*
X42393Y37602D01*
X42199Y36299D02*
X42999Y37099D01*
X91499Y41249D02*
Y42943D01*
X89669Y40549D02*
X90799D01*
X91499Y41249*
Y42943D02*
X91606Y43049D01*
X91393D02*
X91499Y42943D01*
X87299Y55399D02*
X87517Y55617D01*
X89882*
X87299Y54599D02*
Y55399D01*
Y54599D02*
D01*
X89882Y55617D02*
X90154Y55345D01*
X91731*
X92649D02*
X93499D01*
X92435Y55558D02*
Y56291D01*
X92008Y55558D02*
Y56291D01*
X91731Y55345D02*
X91795D01*
X92198Y54799D02*
X93022D01*
X91984Y54586D02*
Y54586D01*
X91557Y54586D02*
Y5475D01*
X9113Y54091D02*
Y5475D01*
X90703Y54091D02*
Y54586D01*
X89999Y54799D02*
X9049D01*
X93022D02*
X93149D01*
X88699Y54599D02*
X889Y54799D01*
X16511Y44874D02*
X16789D01*
X15737Y45648D02*
Y45754D01*
X15811Y45828*
X15737Y45648D02*
X16511Y44874D01*
X15811Y45828D02*
X16769D01*
X19437D02*
X19628D01*
X16769D02*
X17023D01*
X17595Y46399D02*
Y46489D01*
X17976Y46399D02*
Y46489D01*
X18547Y45828D02*
X19437D01*
X19628D02*
X20272Y45184D01*
X24182Y44802D02*
Y4511D01*
Y44802D02*
X24879Y44104D01*
X24108Y45184D02*
X24182Y4511D01*
X20272Y45184D02*
X24108D01*
X24879Y44104D02*
X25334D01*
X15356Y45911D02*
X15653Y46209D01*
X1482Y45574D02*
X15281D01*
X15356Y45648*
Y45911*
X14249Y46144D02*
X1482Y45574D01*
X15653Y46209D02*
X16769D01*
X19437D02*
X19786D01*
X16769D02*
X17023D01*
X17214Y46399D02*
Y46489D01*
X18357Y46399D02*
Y46489D01*
X18547Y46209D02*
X19437D01*
X19786D02*
X2043Y45565D01*
X24108D02*
X24182Y45639D01*
Y45947D02*
X24879Y46644D01*
X2043Y45565D02*
X24108D01*
X24182Y45639D02*
Y45947D01*
X24879Y46644D02*
X25334D01*
X90799Y50299D02*
X90899Y50199D01*
X90799Y50299D02*
Y508D01*
X93449Y50199D02*
X9359Y50059D01*
Y48909D02*
Y50059D01*
X90899Y50199D02*
X93449D01*
X42999Y37099D02*
X43074D01*
Y37107D02*
X44384Y38416D01*
X43074Y37099D02*
Y37107D01*
X38699Y36299D02*
X42199D01*
X42992Y37815D02*
X43373Y38196D01*
X4286Y37815D02*
X42992D01*
X93499Y55345D02*
X95604D01*
X889Y54799D02*
X89999D01*
X93149D02*
X93674Y54274D01*
Y53274D02*
Y54274D01*
Y53274D02*
X95604Y51345D01*
X90799Y508D02*
X90964Y50964D01*
X94399Y49699D02*
Y50549D01*
X93985Y50964D02*
X94399Y50549D01*
Y49699D02*
X94715Y49384D01*
X95565D02*
X95604Y49345D01*
X94715Y49384D02*
X95565D01*
X90964Y50964D02*
X93985D01*
X9359Y48909D02*
X93591Y48908D01*
X92899Y47499D02*
X93599D01*
X71149Y635D02*
X71249D01*
X69568Y61918D02*
X71149Y635D01*
X65457Y61918D02*
X69568D01*
X6468Y61142D02*
X65457Y61918D01*
X6468Y49838D02*
Y61142D01*
Y49838D02*
X65469Y49049D01*
X68329*
X68399Y635D02*
X68499D01*
X67199Y62299D02*
X68399Y635D01*
X65299Y62299D02*
X67199D01*
X64299Y61299D02*
X65299Y62299D01*
X64299Y4968D02*
Y61299D01*
Y4968D02*
X6543Y48549D01*
X68329*
X63899Y48699D02*
Y61499D01*
X65899Y635*
X65549Y47049D02*
X68329D01*
X65449Y46549D02*
X68329D01*
X635Y48499D02*
X65449Y46549D01*
X63899Y48699D02*
X65549Y47049D01*
X635Y48499D02*
Y635D01*
X65899D02*
X65999D01*
X44292Y51807D02*
Y51882D01*
X45304Y52894*
X36449Y33849D02*
Y34049D01*
X38699Y36299*
X32549Y39024D02*
Y45074D01*
Y35549D02*
Y39024D01*
X36449Y33849D02*
X36499Y33799D01*
X36399Y33899D02*
X36449Y33849D01*
X32549Y35549D02*
X34199Y33899D01*
X36399*
X46499Y38917D02*
Y39399D01*
Y38917D02*
X47708Y37709D01*
X47099Y39732D02*
X48415Y38416D01*
X49899Y42399D02*
X50489D01*
X51243Y43154*
X43324Y44922D02*
X44646Y43599D01*
X41556Y41245D02*
X4251Y42199D01*
X43157*
X43324Y39477D02*
X44346Y40499D01*
X37399Y37799D02*
X38124D01*
X4235Y39257D02*
X42812Y39719D01*
X40084Y38876D02*
X41931D01*
X42812Y39719D02*
X42858D01*
X38799Y40161D02*
X40084Y38876D01*
X3918Y40318D02*
X40242Y39257D01*
X42043Y39564D02*
X42616Y40137D01*
X40242Y39257D02*
X41773D01*
X38799Y40161D02*
Y44574D01*
X42616Y40137D02*
Y40184D01*
X3918Y40318D02*
Y44732D01*
X37399Y46499D02*
X38124D01*
X38373Y4554D02*
X3918Y44732D01*
X41773Y39257D02*
X42043Y39526D01*
X38215Y45159D02*
X38799Y44574D01*
X41931Y38876D02*
X42312Y39257D01*
X38289Y39149D02*
X39241Y38196D01*
X39374*
X39969Y37384D02*
Y37602D01*
X40396Y37384D02*
Y37901D01*
X41585Y37384D02*
Y37901D01*
X42012Y37384D02*
Y37602D01*
X42606Y38196D02*
X42834D01*
X4286Y38222*
X38172Y38727D02*
X39083Y37815D01*
X39374*
X39588Y37384D02*
Y37602D01*
X40777Y37384D02*
Y37901D01*
X41204Y37384D02*
Y37901D01*
X42393Y37384D02*
Y37602D01*
X42606Y37815D02*
X4286D01*
Y38222D02*
X43104Y38466D01*
X33864Y44104D02*
X34319D01*
X35017Y44802*
X35818Y4438D02*
X35999Y44199D01*
X36199Y44399*
X35017Y44802D02*
Y4511D01*
X35091Y45184*
X35271*
X35296Y45159D02*
X35744D01*
X35818Y4438D02*
Y45085D01*
X35271Y45184D02*
X35296Y45159D01*
X35744D02*
X35818Y45085D01*
X42312Y39257D02*
X4235D01*
X36199Y45085D02*
X36274Y45159D01*
X36199Y44399D02*
Y45085D01*
X36274Y45159D02*
X38215D01*
X35429Y45565D02*
X35454Y4554D01*
X35017Y45639D02*
X35091Y45565D01*
X35429*
X35454Y4554D02*
X35744D01*
X35818Y45614*
Y46318*
X35017Y45639D02*
Y45947D01*
X33864Y46644D02*
X34319D01*
X35818Y46318D02*
X35999Y46499D01*
X36199Y46299*
X34319Y46644D02*
X35017Y45947D01*
X42043Y39526D02*
Y39564D01*
X36274Y4554D02*
X38373D01*
X36199Y45614D02*
Y46299D01*
Y45614D02*
X36274Y4554D01*
X37399Y44199D02*
X38124D01*
X32849Y45374D02*
X33864D01*
X32549Y45074D02*
X32849Y45374D01*
X37399Y40299D02*
X38124D01*
X38198Y3924D02*
X38289Y39149D01*
X3804Y38859D02*
X38172Y38727D01*
X36274Y38859D02*
X3804D01*
X43984Y3877D02*
X44031D01*
X4341Y38196D02*
X43984Y3877D01*
X43373Y38196D02*
X4341D01*
X36199Y38785D02*
X36274Y38859D01*
X36199Y37999D02*
Y38785D01*
X35999Y37799D02*
X36199Y37999D01*
X35618Y38859D02*
X35763Y38714D01*
X35513Y38859D02*
X35618D01*
X35763Y38036D02*
Y38714D01*
X35488Y38834D02*
X35513Y38859D01*
X35091Y38834D02*
X35488D01*
X35017Y3876D02*
X35091Y38834D01*
X35017Y38452D02*
Y3876D01*
X35763Y38036D02*
X35999Y37799D01*
X34319Y37754D02*
X35017Y38452D01*
X33864Y37754D02*
X34319D01*
X36274Y3924D02*
X38198D01*
X43677Y39077D02*
Y39124D01*
X43104Y38503D02*
X43677Y39077D01*
X36199Y39314D02*
Y40099D01*
X35999Y40299D02*
X36199Y40099D01*
Y39314D02*
X36274Y3924D01*
X43104Y38466D02*
Y38503D01*
X35763Y40063D02*
X35999Y40299D01*
X35763Y39384D02*
Y40063D01*
X35017Y39289D02*
Y39597D01*
X34319Y40294D02*
X35017Y39597D01*
X33864Y40294D02*
X34319D01*
X35618Y3924D02*
X35763Y39384D01*
X35355Y3924D02*
X35618D01*
X3533Y39215D02*
X35355Y3924D01*
X35017Y39289D02*
X35091Y39215D01*
X3533*
X25334Y39024D02*
X26499D01*
X25334Y45374D02*
X26499D01*
X19074Y43287D02*
X23146Y39215D01*
X18917Y42906D02*
X22988Y38834D01*
X23146Y39215D02*
X24108D01*
X22988Y38834D02*
X24108D01*
X17473Y43102D02*
X17658Y43287D01*
X19074*
X24182Y39597D02*
X24879Y40294D01*
X25334*
X14249Y43604D02*
X16865D01*
X17368Y43102*
X17473*
X24108Y39215D02*
X24182Y39289D01*
Y39597*
X16789Y39794D02*
X17741Y40746D01*
Y42831*
X17815Y42906*
X18917*
X24182Y38452D02*
Y3876D01*
X24879Y37754D02*
X25334D01*
X24108Y38834D02*
X24182Y3876D01*
Y38452D02*
X24879Y37754D01*
G54D16*
X54624Y56183D02*
X5443Y56103D01*
X54349Y55908*
X54074Y54436D02*
X54269Y54516D01*
X54349Y54711*
X53799D02*
X5388Y54516D01*
X54074Y54436*
X53799Y55908D02*
X53719Y56103D01*
X53524Y56183*
X5333Y56103D01*
X53249Y55908*
X52974Y54261D02*
X53169Y54341D01*
X53249Y54536*
X52699D02*
X5278Y54341D01*
X52974Y54261*
X52699Y55908D02*
X52619Y56103D01*
X52424Y56183*
X5223Y56103D01*
X52149Y55908*
X51874Y54261D02*
X52069Y54341D01*
X52149Y54536*
X51599D02*
X5168Y54341D01*
X51874Y54261*
X51599Y55908D02*
X51519Y56103D01*
X51324Y56183*
X5113Y56103D01*
X51049Y55908*
X50774Y54261D02*
X50969Y54341D01*
X51049Y54536*
X50499D02*
X5058Y54341D01*
X50774Y54261*
X50499Y55908D02*
X50419Y56103D01*
X50224Y56183*
X43424Y56587D02*
X4323Y56507D01*
X43149Y56312*
X42874Y5586D02*
X43069Y5594D01*
X43149Y56135*
X42599D02*
X4268Y5594D01*
X42874Y5586*
X42599Y56312D02*
X42519Y56507D01*
X42324Y56587*
X4213Y56507D01*
X42049Y56312*
X41774Y55387D02*
X41969Y55468D01*
X42049Y55662*
X41499D02*
X4158Y55468D01*
X41774Y55387*
X41499Y56312D02*
X41419Y56507D01*
X41224Y56587*
X4103Y56507D01*
X40949Y56312*
X40674Y55387D02*
X40869Y55468D01*
X40949Y55662*
X40399D02*
X4048Y55468D01*
X40674Y55387*
X40399Y56312D02*
X40319Y56507D01*
X40124Y56587*
X38631Y50068D02*
X38825Y49988D01*
X3902Y50068*
X39475Y50135D02*
X39281Y50215D01*
X39086Y50135*
X39475Y49746D02*
X39556Y4994D01*
X39475Y50135*
X38794Y49065D02*
X38714Y4887D01*
X38794Y48676*
X38989Y48595D01*
X39183Y48676*
X39798Y48901D02*
X39603Y48982D01*
X39409Y48901*
X38843Y51656D02*
X39037Y51576D01*
X39232Y51656*
X39905Y51941D02*
X39711Y52022D01*
X39517Y51941*
X39905Y51552D02*
X39986Y51747D01*
X39905Y51941*
X39606Y51253D02*
X39526Y51059D01*
X39606Y50864*
X39801Y50784D01*
X39995Y50864*
X40858Y51338D02*
X40663Y51419D01*
X40469Y51338*
X40858Y50949D02*
X40938Y51144D01*
X40858Y51338*
X40398Y5049D02*
X40318Y50295D01*
X40398Y50101*
X54499Y40264D02*
X54579Y4007D01*
X54774Y39989*
X54499Y40783D02*
X54418Y40978D01*
X54224Y41058*
X54029Y40978D01*
X53949Y40783*
X53674Y38953D02*
X53868Y39034D01*
X53949Y39228*
X53399D02*
X53479Y39034D01*
X53674Y38953*
X53399Y40914D02*
X53318Y41109D01*
X53124Y41189*
X52929Y41109D01*
X52849Y40914*
X52574Y39989D02*
X52768Y4007D01*
X52849Y40264*
X56274Y37978D02*
X56355Y37784D01*
X56549Y37703*
X56274Y38384D02*
X56194Y38578D01*
X55999Y38659*
X55805Y38578D01*
X55724Y38384*
X55449Y37703D02*
X55644Y37784D01*
X55724Y37978*
X55174D02*
X55255Y37784D01*
X55449Y37703*
X55174Y39183D02*
X55094Y39377D01*
X54899Y39458*
X54705Y39377D01*
X54624Y39183*
X54349Y37703D02*
X54544Y37784D01*
X54624Y37978*
X54657Y33588D02*
X54462Y33669D01*
X54268Y33588*
X53879D02*
X54073Y33508D01*
X54268Y33588*
X53879Y33977D02*
X53798Y33783D01*
X53879Y33588*
X5397Y34068D02*
X54051Y34263D01*
X5397Y34457*
X53776Y34538D01*
X53581Y34457*
X52858Y34123D02*
X53053Y34043D01*
X53247Y34123*
X52858Y34512D02*
X52778Y34318D01*
X52858Y34123*
X53101Y34755D02*
X53182Y3495D01*
X53101Y35144*
X57192Y34622D02*
X56997Y34702D01*
X56803Y34622*
X56722Y34427*
X56447Y34076D02*
X56642Y34156D01*
X56722Y34351*
X56172D02*
X56253Y34156D01*
X56447Y34076*
X56172Y3478D02*
X56092Y34975D01*
X55897Y35055*
X55703Y34975D01*
X55622Y3478*
X55347Y33827D02*
X55542Y33907D01*
X55622Y34102*
X55072D02*
X55153Y33907D01*
X55347Y33827*
X55072Y34752D02*
X54992Y34946D01*
X54797Y35027*
X55124Y36491D02*
X5493Y36411D01*
X54849Y36216*
X54574Y35431D02*
X54769Y35511D01*
X54849Y35706*
X54299D02*
X5438Y35511D01*
X54574Y35431*
X54299Y36216D02*
X54219Y36411D01*
X54024Y36491*
X66362Y36824D02*
X66442Y3663D01*
X66637Y36549*
X66362Y3687D02*
X66281Y37065D01*
X66087Y37145*
X65893Y37065D01*
X65812Y3687*
X65537Y36482D02*
X65731Y36563D01*
X65812Y36757*
X65262D02*
X65343Y36563D01*
X65537Y36482*
X65262Y36866D02*
X65181Y3706D01*
X64987Y37141*
X64793Y3706D01*
X64712Y36866*
X64574Y36374D02*
X64712Y36706D01*
X62013Y35699D02*
X61819Y35619D01*
X61738Y35424*
X61463Y35076D02*
X61658Y35157D01*
X61738Y35351*
X61188D02*
X61269Y35157D01*
X61463Y35076*
X61188Y35424D02*
X61108Y35619D01*
X60913Y35699*
X60719Y35619D01*
X60638Y35424*
X60363Y35007D02*
X60558Y35088D01*
X60638Y35282*
X60088D02*
X60169Y35088D01*
X60363Y35007*
X60088Y3562D02*
X60008Y35815D01*
X59813Y35895*
X59619Y35815D01*
X59538Y3562*
X59263Y35007D02*
X59458Y35088D01*
X59538Y35282*
X58988D02*
X59069Y35088D01*
X59263Y35007*
X58988Y36064D02*
X58908Y36259D01*
X58713Y36339*
X58519Y36259D01*
X58438Y36064*
X58163Y35699D02*
X58358Y3578D01*
X58438Y35974*
X57724Y37299D02*
X5753Y37219D01*
X57449Y37024*
X57174Y36238D02*
X57369Y36319D01*
X57449Y36513*
X56899D02*
X5698Y36319D01*
X57174Y36238*
X56899Y36724D02*
X56819Y36919D01*
X56624Y36999*
X61599Y36574D02*
X6168Y3638D01*
X61874Y36299*
X61599Y3683D02*
X61519Y37024D01*
X61324Y37105*
X6113Y37024D01*
X61049Y3683*
X60774Y36103D02*
X60969Y36184D01*
X61049Y36378*
X60499D02*
X6058Y36184D01*
X60774Y36103*
X60499Y37024D02*
X60419Y37218D01*
X60224Y37299*
X6003Y37218D01*
X59949Y37024*
X59674Y36299D02*
X59869Y3638D01*
X59949Y36574*
X56837Y4368D02*
X56756Y43485D01*
X56837Y43291*
Y4368D02*
X56917Y43874D01*
X56837Y44069*
X56642Y44149D01*
X56448Y44069*
X5539Y434D02*
X55585Y43319D01*
X55779Y434*
X5539Y43789D02*
X5531Y43594D01*
X5539Y434*
X56519Y44917D02*
X56599Y45112D01*
X56519Y45306*
Y45306D02*
X56324Y45387D01*
X5613Y45306*
X55281Y44846D02*
X55476Y44766D01*
X5567Y44846*
X55167Y46374D02*
X55248Y4618D01*
X55442Y46099*
X55167Y46374D02*
X55087Y46569D01*
X54892Y46649*
X54698Y46569D01*
X54617Y46374*
X54342Y45574D02*
X54537Y45655D01*
X54617Y45849*
X54067D02*
X54148Y45655D01*
X54342Y45574*
X54067Y466D02*
X53987Y46795D01*
X53792Y46875*
X53598Y46795D01*
X53517Y466*
X53242Y45303D02*
X53437Y45384D01*
X53517Y45578*
X52967D02*
X53048Y45384D01*
X53242Y45303*
X52967Y45824D02*
X52887Y46019D01*
X52692Y46099*
X57641Y47279D02*
X57446Y47199D01*
X57366Y47004*
X57091Y4658D02*
X57285Y4666D01*
X57366Y46854*
X56816D02*
X56896Y4666D01*
X57091Y4658*
X56816Y47004D02*
X56735Y47199D01*
X56541Y47279*
X56346Y47199D01*
X56266Y47004*
X55991Y46544D02*
X56185Y46624D01*
X56266Y46819*
X55716D02*
X55796Y46624D01*
X55991Y46544*
X55716Y47004D02*
X55635Y47199D01*
X55441Y47279*
X59437Y44399D02*
X59242Y44319D01*
X59162Y44124*
X59538Y44399D02*
X59732Y4448D01*
X59813Y44674*
X59732Y44869D01*
X59538Y44949*
X58607Y45224D02*
X58688Y4503D01*
X58882Y44949*
Y45499D02*
X58688Y45419D01*
X58607Y45224*
X58887Y45499D02*
X59081Y4558D01*
X59162Y45774*
X62375Y43399D02*
X62181Y43319D01*
X61792D02*
X61986Y43238D01*
X62181Y43319*
X61792Y43708D02*
X61711Y43513D01*
X61792Y43319*
X62042Y43957D02*
X62122Y44152D01*
X62042Y44346*
X62041D02*
X61847Y44427D01*
X61653Y44346*
X6065Y43732D02*
X60844Y43652D01*
X61039Y43732*
X6065Y44121D02*
X60569Y43927D01*
X6065Y43732*
X60819Y44291D02*
X609Y44485D01*
X60819Y4468*
X64724Y44549D02*
X6453Y44469D01*
X64449Y44274*
X64174Y43933D02*
X64369Y44013D01*
X64449Y44208*
X63899D02*
X6398Y44013D01*
X64174Y43933*
X63899Y44553D02*
X63819Y44748D01*
X63624Y44828*
X6343Y44748D01*
X63349Y44553*
X63074Y43803D02*
X63269Y43884D01*
X63349Y44078*
X62799D02*
X6288Y43884D01*
X63074Y43803*
X62799Y44924D02*
X62719Y45119D01*
X62524Y45199*
X6355Y45749D02*
X63355Y4583D01*
X63161Y45749*
X62738Y45715D02*
X62933Y45635D01*
X63127Y45715*
X62738Y46104D02*
X62658Y4591D01*
X62738Y45715*
X62824Y4619D02*
X62904Y46384D01*
X62824Y46579*
X62629Y46659D01*
X62435Y46579*
X61092Y45625D02*
X61287Y45544D01*
X61481Y45625*
X61092Y46014D02*
X61012Y45819D01*
X61092Y45625*
X61624Y46545D02*
X61704Y4674D01*
X61624Y46934*
X61429Y47015*
X62326Y47648D02*
X62131Y47729D01*
X61937Y47648*
X61428Y47528D02*
X61623Y47448D01*
X61817Y47528*
X61428Y47917D02*
X61348Y47723D01*
X61428Y47528*
X61598Y48087D02*
X61678Y48281D01*
X61598Y48476*
X61403Y48556D01*
X61209Y48476*
X60473Y48128D02*
X60667Y48048D01*
X60862Y48128*
X60473Y48517D02*
X60392Y48323D01*
X60473Y48128*
X6077Y48815D02*
X60851Y49009D01*
X6077Y49204*
X62308Y48708D02*
X62228Y48514D01*
X62308Y48319*
X62912Y49312D02*
X62993Y49507D01*
X62912Y49701*
X62718Y49782D01*
X62524Y49701*
X6153Y49097D02*
X61725Y49017D01*
X61919Y49097*
X96474Y27807D02*
X96699Y28032D01*
X95574Y27795D02*
X95799Y2802D01*
X94449D02*
X94674Y27795D01*
X94899Y2802D01*
X95349Y2877D02*
X95124Y28995D01*
X94224D02*
X93999Y2877D01*
X97149D02*
X97374Y28545D01*
X94449Y2877D02*
X94224Y28995D01*
X95349Y2802D02*
X95574Y27795D01*
X96249Y28032D02*
X96474Y27807D01*
X96024Y28995D02*
X95799Y2877D01*
X97374Y28545D02*
X97599Y2877D01*
X93774Y27795D02*
X93999Y2802D01*
X96249Y2877D02*
X96024Y28995D01*
X96924D02*
X96699Y2877D01*
X95124Y28995D02*
X94899Y2877D01*
X93549D02*
X93324Y28995D01*
X97824D02*
X97599Y2877D01*
X97149D02*
X96924Y28995D01*
X93549Y2802D02*
X93774Y27795D01*
X84499Y23272D02*
X84817D01*
X8534Y23476D02*
X85021D01*
X8534Y23158D02*
Y23476D01*
X85135Y22953D02*
Y22635D01*
X85453*
X86702Y23566D02*
X86384D01*
X86702Y23248D02*
Y23566D01*
X85771Y22317D02*
Y21999D01*
X8609*
X87339Y2293D02*
X8702D01*
X87339Y22611D02*
Y2293D01*
X86408Y21681D02*
Y21362D01*
X86726*
X87975Y22293D02*
X87657D01*
X87975Y21975D02*
Y22293D01*
X87044Y21044D02*
Y20726D01*
X87362D01*
X88611Y21657D02*
X88293D01*
X88611Y21339D02*
Y21657D01*
X87681Y20408D02*
Y2009D01*
X87999D01*
X89248Y2102D02*
X8893D01*
X89248Y20702D02*
Y2102D01*
X88317Y19771D02*
Y19453D01*
X88635D01*
X89884Y20384D02*
X89566D01*
X89884Y20066D02*
Y20384D01*
X88953Y19135D02*
Y18817D01*
X84249Y25224D02*
X84474Y24999D01*
X85449Y24774D02*
X85224Y24999D01*
Y24549D02*
X85449Y24774D01*
X84474Y24549D02*
X84249Y24324D01*
X53549Y25199D02*
X54899D01*
X40249Y29749D02*
Y32867D01*
X40749Y29249D02*
X49499D01*
X40249Y29749D02*
X40749Y29249D01*
X49499D02*
X53549Y25199D01*
X43749Y3175D02*
Y3566D01*
X45445Y37356*
X66366Y28266D02*
X66433D01*
X65799Y27699D02*
X66366Y28266D01*
X66399Y28299D02*
X67729Y29629D01*
X66299Y27103D02*
X66929Y27732D01*
X91606Y43049D02*
X93117D01*
X91393D02*
X91606D01*
X78499Y32399D02*
Y33198D01*
X28099Y52199D02*
X29499D01*
X44738Y37979D02*
Y38063D01*
X40999Y35049D02*
X41808D01*
X44738Y37979*
X89669Y43049D02*
X91393D01*
X85899Y16299D02*
X85999Y16399D01*
X68384Y16299D02*
X85899D01*
X78599Y32337D02*
Y32399D01*
X78749Y29629D02*
Y31249D01*
D01*
X78599Y32337D02*
X78749Y32187D01*
Y31249D02*
Y32187D01*
X81283Y26499D02*
X82199D01*
X78999Y27749D02*
Y28498D01*
Y27749D02*
X79491Y27258D01*
X80525*
X81283Y26499*
X78749Y28748D02*
X78999Y28498D01*
X78749Y28748D02*
Y29629D01*
X7772Y28028D02*
Y296D01*
X77749Y29629*
X75699Y48699D02*
Y49299D01*
X76099Y49699D02*
X76899D01*
X75699Y49299D02*
X76099Y49699D01*
X76899D02*
X77249Y50049D01*
X89669Y38049D02*
X90999D01*
X81245Y50973D02*
Y52399D01*
X68294Y30949D02*
Y31565D01*
X71199Y22094D02*
Y22099D01*
Y22094D02*
X71611Y21682D01*
X71616*
X71999Y21299*
X83778Y2342D02*
Y296D01*
Y2342D02*
X89299Y17899D01*
X98199*
X71299Y39199D02*
X73099D01*
X71899Y37499D02*
X73099D01*
X70999Y36599D02*
X71899Y37499D01*
X85299Y31499D02*
X85749Y31049D01*
X76249Y32449D02*
X76799Y32999D01*
X73999Y49499D02*
X74249Y49749D01*
X89669Y40049D02*
X89678Y40041D01*
X91011Y39378D02*
X91079D01*
X89678Y40041D02*
X90691D01*
X90699Y40032*
X89716Y39503D02*
X90886D01*
X89669Y39549D02*
X89716Y39503D01*
X90886D02*
X91011Y39378D01*
X68313Y15799D02*
X87799D01*
X88724D02*
X88824Y15899D01*
X66299Y18384D02*
X68384Y16299D01*
X66299Y18384D02*
Y27103D01*
X65799Y18313D02*
Y27699D01*
Y18313D02*
X68313Y15799D01*
X66929Y27732D02*
Y27799D01*
X87499Y27899D02*
Y27967D01*
X66929Y27799D02*
X67228Y28099D01*
X79749Y50969D02*
Y52692D01*
X70499Y23899D02*
Y25099D01*
X70399Y25199D02*
X70499Y25099D01*
X70399Y25199D02*
Y26999D01*
X72749Y28349D02*
Y29629D01*
Y28349D02*
X72799Y28299D01*
X77749Y50969D02*
Y52311D01*
X78245Y50973D02*
Y52345D01*
X78349Y52449*
X78245Y50973D02*
X78249Y50969D01*
X74749D02*
Y51998D01*
X81245Y50973D02*
X81249Y50969D01*
X66399Y34399D02*
X66447Y34447D01*
X66747D02*
X66849Y34549D01*
X66447Y34447D02*
X66747D01*
X66849Y34549D02*
X68329D01*
X96899Y32899D02*
X96952Y32847D01*
Y30952D02*
Y32847D01*
Y30952D02*
X97004Y30899D01*
X96899Y34199D02*
X9957Y31528D01*
X96899Y34199D02*
Y34299D01*
X9957Y1927D02*
Y31528D01*
X98199Y17899D02*
X9957Y1927D01*
X54624Y56183D02*
X55299D01*
X54349Y54711D02*
Y55908D01*
X54074Y54436D02*
D01*
X53799Y54711D02*
Y55908D01*
X53524Y56183D02*
D01*
X53249Y54536D02*
Y55908D01*
X52974Y54261D02*
D01*
X52699Y54536D02*
Y55908D01*
X52424Y56183D02*
D01*
X52149Y54536D02*
Y55908D01*
X51874Y54261D02*
D01*
X51599Y54536D02*
Y55908D01*
X51324Y56183D02*
D01*
X51049Y54536D02*
Y55908D01*
X50774Y54261D02*
D01*
X50499Y54536D02*
Y55908D01*
X49599Y56183D02*
X50224D01*
X46205Y53794D02*
X48594Y56183D01*
X55299D02*
X55615D01*
X48594D02*
X49599D01*
X43424Y56587D02*
X44899D01*
X43149Y56135D02*
Y56312D01*
X42874Y5586D02*
D01*
X42599Y56135D02*
Y56312D01*
X42324Y56587D02*
D01*
X42049Y55662D02*
Y56312D01*
X41774Y55387D02*
D01*
X41499Y55662D02*
Y56312D01*
X41224Y56587D02*
D01*
X40949Y55662D02*
Y56312D01*
X40674Y55387D02*
D01*
X40399Y55662D02*
Y56312D01*
X39499Y56587D02*
X40124D01*
X44899D02*
X56136D01*
X38895Y53903D02*
X42186Y50613D01*
Y50113D02*
Y50613D01*
X38087Y50611D02*
Y51987D01*
Y50611D02*
X38631Y50068D01*
X3902D02*
X39086Y50135D01*
X39475D02*
D01*
X38794Y49065D02*
X39475Y49746D01*
X38794Y49065D02*
D01*
Y48676D02*
D01*
D01*
X39183D02*
X39409Y48901D01*
X39797D02*
X39798D01*
X39851Y48848*
X38087Y51987D02*
Y56483D01*
X39851Y48848D02*
X39999Y48699D01*
X38491Y52007D02*
X38843Y51656D01*
D01*
X39232D02*
X39517Y51941D01*
X39905D02*
D01*
X39606Y51253D02*
X39905Y51552D01*
X39606Y51253D02*
D01*
Y50864D02*
D01*
D01*
X39995D02*
X40469Y51338D01*
D01*
X40858D02*
D01*
X40398Y5049D02*
X40858Y50949D01*
X40398Y50101D02*
X40603Y49895D01*
D01*
X4084Y49659D01*
X41404Y49094*
X38491Y52007D02*
Y56191D01*
X37683Y49215D02*
Y5665D01*
X38833Y57799*
X38087Y56483D02*
X39Y57395D01*
X37683Y49215D02*
X39604Y47294D01*
X42186Y50113D02*
X42304Y49994D01*
X39999Y48699D02*
X40504Y48194D01*
X55615Y56183D02*
X59899Y51899D01*
X46205Y53794D02*
Y53886D01*
Y53794D02*
D01*
X46183Y53865D02*
X46205Y53886D01*
X44065Y53865D02*
X46183D01*
X43204Y53004D02*
X44065Y53865D01*
X43182Y50917D02*
X43204Y50894D01*
X43182Y50917D02*
Y51363D01*
X43204Y51386*
Y53004*
X38895Y53903D02*
Y55983D01*
X36299Y55999D02*
X36599D01*
X37095Y48503D02*
X39599Y45999D01*
X37095Y48503D02*
Y55503D01*
X39599Y43199D02*
Y45999D01*
X36599Y55999D02*
X37095Y55503D01*
X57599Y35295D02*
X58291Y34603D01*
X56492Y3364D02*
X57545D01*
X63164Y34524D02*
X63553D01*
X59049Y41049D02*
X62449D01*
X54774Y39989D02*
X56099D01*
X54499Y40264D02*
Y40783D01*
X54224Y41058D02*
D01*
X53949Y39228D02*
Y40783D01*
X53674Y38953D02*
D01*
X53399Y39228D02*
Y40914D01*
X53124Y41189D02*
D01*
X52849Y40264D02*
Y40914D01*
X52499Y39989D02*
X52574D01*
X56099D02*
X5631D01*
X51243Y41245D02*
X52499Y39989D01*
X57803Y37703D02*
X58003Y37903D01*
X56549Y37703D02*
X57803D01*
X56274Y37978D02*
Y38384D01*
X55999Y38659D02*
D01*
X55724Y37978D02*
Y38384D01*
X55449Y37703D02*
D01*
X55174Y37978D02*
Y39183D01*
X54899Y39458D02*
D01*
X54624Y37978D02*
Y39183D01*
X54077Y37703D02*
X54349D01*
X53999Y37781D02*
X54077Y37703D01*
X5089Y40891D02*
X53999Y37781D01*
X58003Y37903D02*
X58095Y37995D01*
X5631Y39989D02*
X57899Y38399D01*
X54946Y33299D02*
X55599D01*
X54657Y33588D02*
X54946Y33299D01*
X54268Y33588D02*
D01*
X53879D02*
D01*
D01*
D01*
Y33977D02*
X5397Y34068D01*
D01*
Y34457D02*
D01*
X53247Y34123D02*
X53581Y34457D01*
X52858Y34123D02*
D01*
D01*
D01*
Y34512D02*
X53101Y34755D01*
Y35144D02*
D01*
X52659Y35586D02*
X53101Y35144D01*
X55599Y33299D02*
X56151D01*
X50773Y37473D02*
X52659Y35586D01*
X56151Y33299D02*
X56492Y3364D01*
X57614Y34199D02*
X60698D01*
X57192Y34622D02*
X57614Y34199D01*
X57192Y34622D02*
D01*
X56722Y34351D02*
Y34427D01*
X56447Y34076D02*
D01*
X56172Y34351D02*
Y3478D01*
X55897Y35055D02*
D01*
X55622Y34102D02*
Y3478D01*
X55347Y33827D02*
D01*
X55072Y34102D02*
Y34752D01*
X54172Y35027D02*
X54797D01*
X60698Y34199D02*
X62449D01*
X52876Y36076D02*
D01*
X53926Y35027D02*
X54172D01*
X52876Y36076D02*
X53926Y35027D01*
X57699Y33795D02*
X63495D01*
X64999Y35299D02*
X66619D01*
X63495Y33795D02*
X64999Y35299D01*
X6316Y34524D02*
X63164Y34528D01*
X62774Y34524D02*
X6316D01*
X57545Y3364D02*
X57699Y33795D01*
X49475Y39477D02*
X52876Y36076D01*
X56503Y35295D02*
X57444D01*
X55307Y36491D02*
X56503Y35295D01*
X55124Y36491D02*
X55307D01*
X54849Y35706D02*
Y36216D01*
X54574Y35431D02*
D01*
X54299Y35706D02*
Y36216D01*
X53399Y36491D02*
X54024D01*
X57444Y35295D02*
X57599D01*
X53168Y36491D02*
X53399D01*
X58291Y34603D02*
X62199D01*
X5133Y3833D02*
X53168Y36491D01*
X55603Y36895D02*
X56799Y35699D01*
X58088*
X67199Y36549D02*
X68329D01*
X63399Y35199D02*
X64499Y36299D01*
X66637Y36549D02*
X67199D01*
X66362Y36824D02*
Y3687D01*
X66087Y37145D02*
D01*
X65812Y36757D02*
Y3687D01*
X65537Y36482D02*
D01*
X65262Y36757D02*
Y36866D01*
X64987Y37141D02*
D01*
X64712Y36706D02*
Y36866D01*
X64499Y36299D02*
X64574Y36374D01*
X50182Y40184D02*
X53471Y36895D01*
X55603*
X50536Y40538D02*
X53774Y37299D01*
X54899*
X58088Y35699D02*
X58126D01*
X62699D02*
X63564Y36564D01*
X62013Y35699D02*
X62699D01*
X61738Y35351D02*
Y35424D01*
X61463Y35076D02*
D01*
X61188Y35351D02*
Y35424D01*
X60913Y35699D02*
D01*
X60638Y35282D02*
Y35424D01*
X60363Y35007D02*
D01*
X60088Y35282D02*
Y3562D01*
X59813Y35895D02*
D01*
X59538Y35282D02*
Y3562D01*
X59263Y35007D02*
D01*
X58988Y35282D02*
Y36064D01*
X58713Y36339D02*
D01*
X58438Y35974D02*
Y36064D01*
X58088Y35699D02*
X58163D01*
X63564Y36564D02*
X64549Y37549D01*
X62199Y34603D02*
X62795Y35199D01*
X63399*
X62449Y34199D02*
X62774Y34524D01*
X57724Y37299D02*
X58299D01*
X57449Y36513D02*
Y37024D01*
X57174Y36238D02*
D01*
X56899Y36513D02*
Y36724D01*
X56099Y36999D02*
X56624D01*
X55799Y37299D02*
X56099Y36999D01*
X54899Y37299D02*
X55799D01*
X58299D02*
X58599D01*
X62614Y36299D02*
X63799Y37484D01*
X61874Y36299D02*
X62614D01*
X61599Y36574D02*
Y3683D01*
X61324Y37105D02*
D01*
X61049Y36378D02*
Y3683D01*
X60774Y36103D02*
D01*
X60499Y36378D02*
Y37024D01*
X60224Y37299D02*
D01*
X59949Y36574D02*
Y37024D01*
X59599Y36299D02*
X59674D01*
X63799Y37484D02*
X64364Y38049D01*
X56837Y43291D02*
X57799Y42328D01*
X56837Y4368D02*
D01*
Y44069D02*
D01*
X55779Y434D02*
X56448Y44069D01*
X5539Y434D02*
D01*
D01*
D01*
Y43789D02*
X56519Y44917D01*
Y45306D02*
Y45306D01*
X5613Y45306D02*
D01*
X5567Y44846D02*
X5613Y45306D01*
X55228Y44899D02*
X55281Y44846D01*
X55442Y46099D02*
X56299D01*
X55167Y46374D02*
D01*
X54892Y46649D02*
D01*
X54617Y45849D02*
Y46374D01*
X54342Y45574D02*
D01*
X54067Y45849D02*
Y466D01*
X53792Y46875D02*
D01*
X53517Y45578D02*
Y466D01*
X53242Y45303D02*
D01*
X52967Y45578D02*
Y45824D01*
X52067Y46099D02*
X52692D01*
X56299D02*
X57399D01*
X50182Y44215D02*
X52067Y46099D01*
X57399D02*
X57799Y45699D01*
X51574Y44899D02*
X55228D01*
X50536Y43861D02*
X51574Y44899D01*
X57799Y43526D02*
Y45699D01*
Y43526D02*
X59299Y42026D01*
X62855*
X58203Y44024D02*
X59797Y4243D01*
X59799Y42999D02*
X59965Y42834D01*
X58203Y44024D02*
Y45903D01*
X58695Y46395*
X59797Y4243D02*
X62688D01*
X59965Y42834D02*
X62381D01*
X58319Y47279D02*
X58622Y46977D01*
X57641Y47279D02*
X58319D01*
X57366Y46854D02*
Y47004D01*
X57091Y4658D02*
D01*
X56816Y46854D02*
Y47004D01*
X56541Y47279D02*
D01*
X56266Y46819D02*
Y47004D01*
X55991Y46544D02*
D01*
X55716Y46819D02*
Y47004D01*
X54816Y47279D02*
X55441D01*
X5254D02*
X54816D01*
X58622Y46977D02*
X58695Y46903D01*
X62688Y4243D02*
X62807Y42549D01*
X62855Y42026D02*
X62878Y42049D01*
X58695Y46395D02*
Y46903D01*
X57799Y42299D02*
Y42328D01*
X59162Y46399D02*
Y47062D01*
Y43637D02*
X59799Y42999D01*
X59162Y43637D02*
Y44124D01*
X59437Y44399D02*
X59538D01*
X59813Y44674D02*
D01*
X58882Y44949D02*
X59538D01*
X58607Y45224D02*
D01*
X58882Y45499D02*
X58887D01*
X59162Y45774D02*
Y46399D01*
X5854Y47683D02*
X59162Y47062D01*
X59599Y45899D02*
Y47287D01*
X58799Y48087D02*
X59599Y47287D01*
X59134Y48895D02*
X61015Y47015D01*
X60399Y45746D02*
Y47059D01*
X58967Y48491D02*
X60399Y47059D01*
X62878Y42049D02*
X68329D01*
X62807Y42549D02*
X68329D01*
X62381Y42834D02*
X62501Y42953D01*
X62375Y43399D02*
X63799D01*
X62181Y43319D02*
D01*
X61792D02*
D01*
D01*
D01*
Y43708D02*
X62042Y43957D01*
X62041Y44346D02*
X62042D01*
X61039Y43732D02*
X61653Y44346D01*
X6065Y43732D02*
D01*
D01*
Y44121D02*
X60819Y44291D01*
Y4468D02*
D01*
X59599Y45899D02*
X60819Y4468D01*
X63799Y43399D02*
X64399D01*
X60399Y45746D02*
X61119Y45026D01*
X61899*
X65049Y44049D02*
X68329D01*
X64399Y43399D02*
X65049Y44049D01*
X64724Y44549D02*
X66899D01*
X64449Y44208D02*
Y44274D01*
X64174Y43933D02*
D01*
X63899Y44208D02*
Y44553D01*
X63624Y44828D02*
D01*
X63349Y44078D02*
Y44553D01*
X63074Y43803D02*
D01*
X62799Y44078D02*
Y44924D01*
X62172Y45199D02*
X62524D01*
X61999Y45026D02*
X62172Y45199D01*
X61899Y45026D02*
X61999D01*
X66899Y44549D02*
X68329D01*
X64249Y45049D02*
X64749D01*
X6355Y45749D02*
X64249Y45049D01*
X6355Y45749D02*
D01*
X63127Y45715D02*
X63161Y45749D01*
X62738Y45715D02*
D01*
D01*
D01*
Y46104D02*
X62824Y4619D01*
Y46579D02*
D01*
X62435D02*
D01*
X61481Y45625D02*
X62435Y46579D01*
X61092Y45625D02*
D01*
D01*
D01*
Y46014D02*
D01*
X61624Y46545*
X61015Y47015D02*
X61429D01*
X64749Y45049D02*
X68329D01*
X63126Y46848D02*
X64424Y45549D01*
X62326Y47648D02*
X63126Y46848D01*
X62326Y47648D02*
D01*
X61817Y47528D02*
X61937Y47648D01*
X61428Y47528D02*
D01*
D01*
D01*
Y47917D02*
X61598Y48087D01*
Y48476D02*
D01*
X61209D02*
D01*
X60862Y48128D02*
X61209Y48476D01*
X60473Y48128D02*
D01*
D01*
D01*
Y48517D02*
D01*
X6077Y48815*
Y49204D02*
D01*
X60674Y49299D02*
X6077Y49204D01*
X60177Y49299D02*
X60674D01*
X50317D02*
X60177D01*
X6423Y46398D02*
X64547Y4608D01*
X62308Y48319D02*
X6423Y46398D01*
X62308Y48708D02*
X62912Y49312D01*
Y49701D02*
D01*
X62524D02*
D01*
X61919Y49097D02*
X62524Y49701D01*
X61477Y4915D02*
X6153Y49097D01*
X60924Y49703D02*
X61477Y4915D01*
X64424Y45549D02*
X68329D01*
X50014Y49703D02*
X60924D01*
X64547Y4608D02*
X68298D01*
X68329Y46049*
X93117Y43049D02*
X93607Y43539D01*
X94299*
X76249Y29629D02*
Y32449D01*
X85749Y29629D02*
Y31049D01*
X88149Y33549D02*
X89669D01*
X88199Y49049D02*
X89669D01*
X85749Y49699D02*
Y50969D01*
X77249Y50049D02*
Y50969D01*
X74249Y49749D02*
Y50969D01*
X68329Y48049D02*
X70149D01*
X70699Y47499*
X68329Y43049D02*
X69999D01*
X68329Y37049D02*
X69799D01*
X40249Y32867D02*
X45091Y37709D01*
X49699Y37599D02*
Y37839D01*
X67228Y28099D02*
X7006D01*
X70718Y28758*
X67729Y29629D02*
X70249D01*
X71249Y28549D02*
Y29629D01*
X65107Y36078D02*
X683D01*
X62449Y41049D02*
X63045Y41645D01*
X71735Y28214D02*
Y29615D01*
X68304Y33074D02*
X68329Y33049D01*
X68315Y34035D02*
X68329Y34049D01*
X683Y36078D02*
X68329Y36049D01*
X66649Y47549D02*
X68329D01*
X65567Y34199D02*
X66288Y33478D01*
X70718Y28758D02*
Y29598D01*
X67117Y35549D02*
X68329D01*
X66795Y39049D02*
X68329D01*
X65824Y33074D02*
X68304D01*
X67249Y41049D02*
X68329D01*
X66399Y47799D02*
X66649Y47549D01*
X66288Y33478D02*
X67298D01*
X66653Y41645D02*
X67249Y41049D01*
X64799Y32999D02*
X65249Y32549D01*
X67082Y34035D02*
X68315D01*
X64049Y39049D02*
X65699D01*
X66299Y40299D02*
X66549Y40049D01*
X87249Y28217D02*
Y29629D01*
X78249Y28499D02*
Y29629D01*
X7172Y28199D02*
X71735Y28214D01*
X67298Y33478D02*
X67369Y33549D01*
X65795Y38953D02*
X66699D01*
X66305Y41094D02*
X66849Y40549D01*
X68329*
X67058Y34011D02*
X67082Y34035D01*
X63899Y32999D02*
X64849Y32049D01*
X65249Y32549D02*
X68329D01*
X67369Y33549D02*
X68329D01*
X89669Y33049D02*
X90999D01*
X66349Y39549D02*
X68329D01*
X87249Y28217D02*
X87499Y27967D01*
X83249Y28299D02*
Y29629D01*
X65799Y33099D02*
X65824Y33074D01*
X71735Y29615D02*
X71749Y29629D01*
X71004Y28295D02*
Y28304D01*
X66699Y38953D02*
X66795Y39049D01*
X71004Y28304D02*
X71249Y28549D01*
X62799Y37799D02*
X64049Y39049D01*
X70718Y29598D02*
X70749Y29629D01*
X64849Y32049D02*
X68329D01*
X65699Y39049D02*
X65795Y38953D01*
X66549Y40049D02*
X68329D01*
X63553Y34524D02*
X65107Y36078D01*
X62599Y37799D02*
X62799D01*
X63045Y41645D02*
X66653D01*
X90199Y1897D02*
Y18999D01*
X89371Y18399D02*
X93099D01*
X89325Y18446D02*
X89371Y18399D01*
X93099D02*
X94399Y19699D01*
X92399Y21199D02*
X92999D01*
X90199Y18999D02*
X92399Y21199D01*
X92999D02*
X93108Y21308D01*
X47194Y52804D02*
X47194D01*
X47194D02*
D01*
X46294Y51904D02*
X46295D01*
X93549Y2802D02*
Y2877D01*
X96249Y28032D02*
Y2877D01*
X96924Y28995D02*
D01*
X97374Y28545D02*
D01*
X95349Y2802D02*
Y2877D01*
X96474Y27807D02*
D01*
X97824Y28995D02*
X98303D01*
X92799D02*
X93324D01*
X97149Y2877D02*
D01*
X93999Y2802D02*
Y2877D01*
X95124Y28995D02*
D01*
X94224D02*
D01*
X94674Y27795D02*
D01*
X95574D02*
D01*
X96024Y28995D02*
D01*
X95799Y2802D02*
Y2877D01*
X96699Y28032D02*
Y2877D01*
X93774Y27795D02*
D01*
X98303Y28995D02*
X98525Y28773D01*
X97599Y2877D02*
D01*
X94899Y2802D02*
Y2877D01*
X94449Y2802D02*
Y2877D01*
X81749Y28517D02*
Y29629D01*
Y28517D02*
X82199Y28067D01*
Y27899D02*
Y28067D01*
X69199Y21999D02*
Y22099D01*
Y21999D02*
X70274Y20924D01*
Y20524D02*
Y20924D01*
Y20524D02*
X70499Y20299D01*
X71199Y22099D02*
Y22199D01*
X70499Y22899D02*
X71199Y22199D01*
X70499Y22899D02*
Y23899D01*
X95376Y18576D02*
X95552Y18752D01*
Y19552D02*
X95799Y19799D01*
X95552Y18752D02*
Y19552D01*
X96099Y18499D02*
Y19699D01*
X925Y45099D02*
X94199D01*
X95604Y46504D02*
Y47345D01*
X94199Y45099D02*
X95604Y46504D01*
X915Y45999D02*
X916D01*
X925Y45099*
X9095Y46549D02*
X915Y45999D01*
X83749Y29629D02*
X83778Y296D01*
X89669Y46549D02*
X9095D01*
X90599Y23399D02*
X91299D01*
X889Y23299D02*
X90499D01*
X90599Y23399*
X87749Y28549D02*
Y29629D01*
Y28549D02*
X88399Y27899D01*
X84249Y23766D02*
Y2377D01*
Y23521D02*
Y23766D01*
Y23521D02*
X84499Y23272D01*
X84817D02*
X85021Y23476D01*
X8534Y23476D02*
Y23476D01*
Y23476*
D01*
X85135Y22953D02*
X8534Y23158D01*
X85135Y22953D02*
D01*
X85453Y22635D02*
X86384Y23566D01*
D01*
X86702D02*
D01*
D01*
X85771Y22317D02*
X86702Y23248D01*
X85771Y22317D02*
D01*
X8609Y21999D02*
X8702Y2293D01*
D01*
X87339D02*
D01*
D01*
X86408Y21681D02*
X87339Y22611D01*
X86408Y21681D02*
D01*
X86726Y21362D02*
X87657Y22293D01*
D01*
X87975D02*
D01*
D01*
X87044Y21044D02*
X87975Y21975D01*
X87044Y21044D02*
D01*
Y20726D02*
D01*
X87362D02*
X88293Y21657D01*
D01*
X87681Y20408D02*
X88611Y21339D01*
X87681Y20408D02*
D01*
Y2009D02*
D01*
X87999D02*
X8893Y2102D01*
D01*
X88317Y19771D02*
X89248Y20702D01*
X88317Y19771D02*
D01*
Y19453D02*
D01*
X88635D02*
X89566Y20384D01*
D01*
X88953Y19135D02*
X89884Y20066D01*
X88953Y18817D02*
X89325Y18446D01*
X84249Y2377D02*
Y23799D01*
Y25224D02*
Y26575D01*
X84474Y24999D02*
X85224D01*
X85449Y24774D02*
D01*
X84474Y24549D02*
X85224D01*
X84249Y23799D02*
Y24324D01*
Y26575D02*
Y29629D01*
X99166Y19438D02*
Y25632D01*
X88295Y26695D02*
X98103D01*
X99166Y25632*
X87099Y25499D02*
X88295Y26695D01*
X85299Y25499D02*
X87099D01*
X84653Y26145D02*
X85299Y25499D01*
X98525Y28773D02*
X98599Y28699D01*
X92603Y28995D02*
X92799D01*
X91999Y29599D02*
X92603Y28995D01*
X98599Y27499D02*
Y28699D01*
X87299Y27099D02*
X98199D01*
X98599Y27499*
X86749Y27649D02*
X87299Y27099D01*
X91999Y29599D02*
Y34499D01*
X89669Y48049D02*
X90849D01*
X91399Y47499*
X91499*
X89669Y48549D02*
X90982D01*
X91332Y48899*
X91499*
X92699Y39399D02*
X94299Y40999D01*
X92699Y36342D02*
Y39399D01*
X90907Y34549D02*
X92699Y36342D01*
X89669Y34549D02*
X90907D01*
X95999Y39299D02*
X97699Y40999D01*
X95999Y37099D02*
Y39299D01*
X94971Y36071D02*
X95999Y37099D01*
X95132Y35667D02*
X95499Y35299D01*
X91999Y34499D02*
X93167Y35667D01*
X95132*
X92999Y36071D02*
X94971D01*
X90978Y34049D02*
X92999Y36071D01*
X89669Y34049D02*
X90978D01*
X76749Y27949D02*
X76799Y27899D01*
X76749Y27949D02*
Y29629D01*
X76799Y26467D02*
Y26499D01*
Y26467D02*
X77115Y26152D01*
X77147*
X78174Y25124*
X78874*
X79499Y24499*
X86749Y27649D02*
Y29629D01*
X88399Y27899D02*
X88499D01*
X93194Y30899D02*
Y32194D01*
X85999Y27999D02*
X86218Y28218D01*
Y29598*
X86249Y29629*
X85249Y28649D02*
Y29629D01*
X84653Y26145D02*
Y28053D01*
X85249Y28649*
X98032Y18303D02*
X99166Y19438D01*
X96295Y18303D02*
X98032D01*
X96099Y18499D02*
X96295Y18303D01*
X95499Y34299D02*
Y35299D01*
X94399Y19699D02*
Y19799D01*
X93108Y23213D02*
X93194Y23299D01*
X93108Y21308D02*
Y23213D01*
X95799Y21199D02*
X97199D01*
X95734Y23299D02*
X95767Y23267D01*
Y21232D02*
Y23267D01*
Y21232D02*
X95799Y21199D01*
X94432Y23267D02*
X94464Y23299D01*
X94432Y21232D02*
Y23267D01*
X94399Y21199D02*
X94432Y21232D01*
X94099Y32732D02*
Y32899D01*
Y32732D02*
X94464Y32367D01*
Y30899D02*
Y32367D01*
X95499Y32899D02*
X95648Y32751D01*
Y30986D02*
Y32751D01*
Y30986D02*
X95734Y30899D01*
X71199Y65549D02*
X71249Y65499D01*
X71199Y65549D02*
Y67199D01*
X68499Y65499D02*
Y67199D01*
X65999Y65499D02*
D01*
Y67199*
X63449Y65549D02*
X635Y65499D01*
X63449Y65549D02*
Y67199D01*
X39604Y47294D02*
D01*
X40199Y39899D02*
Y42599D01*
X39599Y43199D02*
X40199Y42599D01*
Y39899D02*
X40449Y3965D01*
X51681Y44299D02*
X52099D01*
X5089Y43508D02*
X51681Y44299D01*
X48999Y47274D02*
Y47399D01*
X48061Y46336D02*
X48999Y47274D01*
X47354Y47043D02*
Y47084D01*
X48396Y47407D02*
Y47696D01*
X48669Y47969*
X48987*
X47354Y47084D02*
X47992Y47721D01*
Y47892*
X48473Y48373*
X47708Y46719D02*
X48396Y47407D01*
X48987Y47969D02*
X50317Y49299D01*
X47708Y4669D02*
Y46719D01*
X48684Y48373D02*
X50014Y49703D01*
X48473Y48373D02*
X48684D01*
X40449Y3965D02*
X41375D01*
X48768Y3877D02*
X49699Y37839D01*
X48061Y38063D02*
X48999Y37125D01*
X53847Y29547D02*
X53899Y29599D01*
X52547Y29547D02*
X53847D01*
X52499Y29499D02*
X52547Y29547D01*
X54899Y25199D02*
X57499D01*
X58099Y25799D02*
Y26599D01*
X57499Y25199D02*
X58099Y25799D01*
X59499Y37699D02*
X59899D01*
X67298Y35049D02*
X68329D01*
X35199Y53499D02*
X36299D01*
X35099Y53599D02*
X35199Y53499D01*
X35099Y52199D02*
X36299D01*
X33699Y53599D02*
X35099D01*
X42149Y45389D02*
Y45849D01*
X4297Y44568D02*
D01*
X42149Y45389D02*
X4297Y44568D01*
X41608Y45359D02*
X41928Y45038D01*
X41608Y45359D02*
Y45397D01*
X41928Y44903D02*
Y45038D01*
Y44903D02*
X42616Y44215D01*
D01*
X40899Y40199D02*
X41217D01*
X41909Y40891D02*
D01*
X41217Y40199D02*
X41909Y40891D01*
X43366Y47257D02*
X43749Y4764D01*
Y47896*
X43366Y47D02*
X44384Y45982D01*
X43366Y47D02*
Y47257D01*
X43345Y47882D02*
Y48954D01*
X43294Y49004D02*
X43345Y48954D01*
X42931Y46729D02*
X44031Y45629D01*
X42931Y46729D02*
Y47468D01*
X41375Y3965D02*
X42263Y40538D01*
X4087Y44524D02*
Y45408D01*
X41565Y46103*
Y47134*
X41399Y44725D02*
Y44743D01*
X4087Y44524D02*
X41887Y43508D01*
X40199Y4451D02*
X41556Y43154D01*
X40199Y4451D02*
Y45909D01*
X41399Y44725D02*
X42263Y43861D01*
X41887Y43508D02*
X41909D01*
X41494Y47204D02*
X41565Y47134D01*
X40594Y46304D02*
D01*
X40199Y45909D02*
X40594Y46304D01*
X49122Y39124D02*
X50773Y37473D01*
X66619Y35299D02*
X66898Y3502D01*
X67269*
X67298Y35049*
X62599Y51899D02*
X62628Y51928D01*
Y52819*
X61749Y51899D02*
Y51949D01*
X57203Y57395D02*
X61999Y52599D01*
X62099*
X39Y57395D02*
X57203D01*
X56136Y56587D02*
X60824Y51899D01*
X39291Y56991D02*
X56707D01*
X57648Y57799D02*
X62628Y52819D01*
X38833Y57799D02*
X57648D01*
X56707Y56991D02*
X61749Y51949D01*
X38895Y55983D02*
X39499Y56587D01*
X38491Y56191D02*
X39291Y56991D01*
X62501Y42953D02*
X66653D01*
X67249Y43549*
X68329*
X62399Y37799D02*
X62599D01*
X58095Y37995D02*
X58803D01*
X62153Y37099D02*
X62749D01*
X61953Y37299D02*
X62153Y37099D01*
X61953Y37299D02*
Y37645D01*
X61603Y37995D02*
X61953Y37645D01*
X59099Y37699D02*
X59499D01*
X59899D02*
X60195Y37995D01*
X61603*
X58803D02*
X59099Y37699D01*
X61799Y38399D02*
X62399Y37799D01*
X57899Y38399D02*
X61799D01*
X51328Y48895D02*
X59134D01*
X57799Y42299D02*
X59049Y41049D01*
X52237Y47683D02*
X5854D01*
X48768Y45629D02*
X51631Y48491D01*
X49829Y44568D02*
X5254Y47279D01*
X51631Y48491D02*
X58967D01*
X49122Y45275D02*
X51934Y48087D01*
X58799*
X49475Y44922D02*
X52237Y47683D01*
X48415Y45982D02*
X51328Y48895D01*
X64364Y38049D02*
X68329D01*
X64199Y38549D02*
X68329D01*
X62749Y37099D02*
X64199Y38549D01*
X58599Y37299D02*
X59599Y36299D01*
X64549Y37549D02*
X68329D01*
X5133Y3833D02*
D01*
X49829Y39831D02*
X5133Y3833D01*
X42931Y47468D02*
X43345Y47882D01*
X44153Y47729D02*
X45077Y48653D01*
X44153Y46951D02*
Y47729D01*
X43749Y47896D02*
X44265Y48413D01*
X45077Y49763D02*
X45707Y50392D01*
X44194Y49904D02*
X44265Y49834D01*
X45077Y48653D02*
Y49763D01*
X45707Y50392D02*
D01*
X44265Y48413D02*
Y49834D01*
X44738Y46336D02*
Y46366D01*
X44153Y46951D02*
X44738Y46366D01*
X42465Y46487D02*
X43677Y45275D01*
X42465Y46487D02*
Y48034D01*
X42394Y48104D02*
X42465Y48034D01*
G54D61*
X74499Y20699D03*
X79499D03*
Y24499D03*
X74499D03*
G54D62*
X88824Y08899D03*
Y15899D03*
G54D63*
X68329Y49049D03*
Y48549D03*
Y48049D03*
Y47549D03*
Y47049D03*
Y46549D03*
Y46049D03*
Y45549D03*
Y45049D03*
Y44549D03*
Y44049D03*
Y43549D03*
Y43049D03*
Y42549D03*
Y42049D03*
Y41549D03*
Y41049D03*
Y40549D03*
Y40049D03*
Y39549D03*
Y39049D03*
Y38549D03*
Y38049D03*
Y37549D03*
Y37049D03*
Y36549D03*
Y36049D03*
Y35549D03*
Y35049D03*
Y34549D03*
Y34049D03*
Y33549D03*
Y33049D03*
Y32549D03*
Y32049D03*
Y31549D03*
X89669D03*
Y32049D03*
Y32549D03*
Y33049D03*
Y33549D03*
Y34049D03*
Y34549D03*
Y35049D03*
Y35549D03*
Y36049D03*
Y36549D03*
Y37049D03*
Y37549D03*
Y38049D03*
Y38549D03*
Y39049D03*
Y39549D03*
Y40049D03*
Y40549D03*
Y41049D03*
Y41549D03*
Y42049D03*
Y42549D03*
Y43049D03*
Y43549D03*
Y44049D03*
Y44549D03*
Y45049D03*
Y45549D03*
Y46049D03*
Y46549D03*
Y47049D03*
Y47549D03*
Y48049D03*
Y48549D03*
Y49049D03*
G54D64*
X70249Y29629D03*
X70749D03*
X71249D03*
X71749D03*
X72249D03*
X72749D03*
X73249D03*
X73749D03*
X74249D03*
X74749D03*
X75249D03*
X75749D03*
X76249D03*
X76749D03*
X77249D03*
X77749D03*
X78249D03*
X78749D03*
X79249D03*
X79749D03*
X80249D03*
X80749D03*
X81249D03*
X81749D03*
X82249D03*
X82749D03*
X83249D03*
X83749D03*
X84249D03*
X84749D03*
X85249D03*
X85749D03*
X86249D03*
X86749D03*
X87249D03*
X87749D03*
Y50969D03*
X87249D03*
X86749D03*
X86249D03*
X85749D03*
X85249D03*
X84749D03*
X84249D03*
X83749D03*
X83249D03*
X82749D03*
X82249D03*
X81749D03*
X81249D03*
X80749D03*
X80249D03*
X79749D03*
X79249D03*
X78749D03*
X78249D03*
X77749D03*
X77249D03*
X76749D03*
X76249D03*
X75749D03*
X75249D03*
X74749D03*
X74249D03*
X73749D03*
X73249D03*
X72749D03*
X72249D03*
X71749D03*
X71249D03*
X70749D03*
X70249D03*
G54D65*
X87299Y54599D03*
Y53199D03*
X96899Y32899D03*
Y34299D03*
X88699Y53199D03*
Y54599D03*
X95499Y32899D03*
Y34299D03*
X94099Y32899D03*
Y34299D03*
X97199Y19799D03*
Y21199D03*
X95799Y19799D03*
Y21199D03*
X94399Y19799D03*
Y21199D03*
X92999D03*
Y19799D03*
X889Y23299D03*
Y24699D03*
X85999Y27899D03*
Y26499D03*
X82199Y27899D03*
Y26499D03*
X76799Y27899D03*
Y26499D03*
X71199Y67199D03*
Y68599D03*
X68499Y67199D03*
Y68599D03*
X65999Y67199D03*
Y68599D03*
X63449Y67199D03*
Y68599D03*
X35099Y53599D03*
Y52199D03*
X33699D03*
Y53599D03*
X29499Y52199D03*
Y53599D03*
G54D66*
X929Y45999D03*
X915D03*
X92899Y47499D03*
X91499D03*
X92899Y48899D03*
X91499D03*
X89899Y27899D03*
X88499D03*
X70499Y20299D03*
X69099D03*
Y23899D03*
X70499D03*
X58099Y26599D03*
X56699D03*
X37399Y37799D03*
X35999D03*
X37399Y40299D03*
X35999D03*
Y44199D03*
X37399D03*
X35999Y46499D03*
X37399D03*
G54D67*
X94464Y23299D03*
X97004D03*
X95734D03*
X94464Y30899D03*
X95734D03*
X93194D03*
X97004D03*
X93194Y23299D03*
G54D68*
X90599Y254D03*
X65999Y635D03*
X68499D03*
X635D03*
X57299Y10199D03*
Y12199D03*
X49799Y12299D03*
Y10299D03*
X47099Y13999D03*
Y08199D03*
Y10199D03*
Y06399D03*
Y04399D03*
X71249Y635D03*
G54D69*
X90599Y23399D03*
X65999Y65499D03*
X68499D03*
X635D03*
X47099Y11999D03*
X71249Y65499D03*
G54D70*
X53899Y29599D03*
X60899D03*
X94299Y43539D03*
Y38459D03*
X97699D03*
Y43539D03*
G54D71*
X59599Y10399D03*
X62199D03*
X54699D03*
X52099D03*
X44299Y01799D03*
X46899D03*
G54D72*
X61899Y12399D03*
X59899D03*
X52399D03*
X54399D03*
X38999Y35049D03*
X40999D03*
X01849Y55699D03*
X03849D03*
X01849Y57949D03*
X03849D03*
X01849Y53699D03*
Y59949D03*
X71199Y22099D03*
G54D73*
X59699Y01799D03*
X52299D03*
G54D74*
X57399Y07999D03*
X59699D03*
X61999D03*
X49999D03*
X52299D03*
X54599D03*
G54D75*
X44299Y04199D03*
G54D76*
X44299Y08599D03*
G54D77*
X44299Y14201D03*
Y11401D03*
X34199Y31099D03*
Y33899D03*
G54D78*
X45445Y47043D03*
X45091Y4669D03*
X44738Y46336D03*
X44384Y45982D03*
X44031Y45629D03*
X43677Y45275D03*
X43324Y44922D03*
X4297Y44568D03*
X42616Y44215D03*
X42263Y43861D03*
X41909Y43508D03*
X41556Y43154D03*
X47354Y37356D03*
X47708Y37709D03*
X48061Y38063D03*
X48415Y38416D03*
X48768Y3877D03*
X49122Y39124D03*
X49475Y39477D03*
X49829Y39831D03*
X50182Y40184D03*
X50536Y40538D03*
X5089Y40891D03*
X51243Y41245D03*
G54D79*
X41556Y41245D03*
X41909Y40891D03*
X42263Y40538D03*
X42616Y40184D03*
X4297Y39831D03*
X43324Y39477D03*
X43677Y39124D03*
X44031Y3877D03*
X44384Y38416D03*
X44738Y38063D03*
X45091Y37709D03*
X45445Y37356D03*
X51243Y43154D03*
X5089Y43508D03*
X50536Y43861D03*
X50182Y44215D03*
X49829Y44568D03*
X49475Y44922D03*
X49122Y45275D03*
X48768Y45629D03*
X48415Y45982D03*
X48061Y46336D03*
X47708Y4669D03*
X47354Y47043D03*
G54D80*
X36499Y33799D03*
Y31199D03*
G54D81*
X40594Y46304D03*
X39604Y47294D03*
X41494Y47204D03*
X40504Y48194D03*
X42394Y48104D03*
X41404Y49094D03*
X43294Y49004D03*
X42304Y49994D03*
X44194Y49904D03*
X43204Y50894D03*
X45304Y52894D03*
X46294Y51904D03*
X46205Y53794D03*
X47194Y52804D03*
G54D82*
X45707Y50392D03*
G54D83*
X44292Y51807D03*
G54D84*
X33864Y37754D03*
Y39024D03*
Y40294D03*
Y41564D03*
Y42834D03*
Y44104D03*
Y45374D03*
Y46644D03*
X25334D03*
Y45374D03*
Y44104D03*
Y42834D03*
Y41564D03*
Y40294D03*
Y39024D03*
Y37754D03*
G54D85*
X18499Y13199D03*
X22699D03*
X18499Y29699D03*
X22699D03*
G54D86*
X03849Y53699D03*
Y59949D03*
X69199Y22099D03*
G54D87*
X46294Y51904D02*
X46899Y51299D01*
X59899Y21999D02*
X63974Y26074D01*
X59899Y12399D02*
Y21999D01*
X63974Y26074D02*
Y28324D01*
X64449Y28799D02*
X65899D01*
X63974Y28324D02*
X64449Y28799D01*
X36499Y31199D02*
X37149D01*
X61599Y11649D02*
Y12299D01*
X62199Y09749D02*
Y10399D01*
X82199Y26499D02*
X82849D01*
X929Y45999D02*
X9355D01*
X97199Y19799D02*
X97849D01*
X96999Y23424D02*
Y24074D01*
X89949Y254D02*
X90599D01*
X61274Y29624D02*
X61924D01*
X61999Y07999D02*
X62649D01*
X43349Y01799D02*
X43999D01*
X46449Y06399D02*
X47099D01*
X46449Y13999D02*
X47099D01*
X49149Y12299D02*
X49799D01*
X54599Y07999D02*
X55249D01*
X54899Y10399D02*
X55549D01*
X54399Y12399D02*
X55049D01*
X56649Y12199D02*
X57299D01*
X38999Y34399D02*
Y35049D01*
X47194Y52804D02*
X47799Y52199D01*
X46294Y51904D02*
D01*
G54D88*
X90799Y17399D02*
X91799Y16399D01*
X87699Y17399D02*
X90799D01*
X85999Y19099D02*
X87699Y17399D01*
G54D89*
X89499Y12999D02*
X90499D01*
X88824Y12324D02*
X89499Y12999D01*
X88824Y08899D02*
Y12324D01*
X87799Y15799D02*
X88574D01*
X88824Y15899D02*
X88999Y16074D01*
X89774*
X92349Y19799D02*
X92999D01*
X68449Y23899D02*
X69099D01*
X68449Y20299D02*
X69099D01*
X93449Y34299D02*
X94099D01*
X89899Y27899D02*
Y28549D01*
X85999Y26499D02*
X86649D01*
X88249Y24699D02*
X889D01*
X71199Y68599D02*
X71849D01*
X68499D02*
X69149D01*
X65999D02*
X66649D01*
X63449D02*
X64099D01*
G54D90*
X271Y53599D02*
X29499D01*
X32399Y52199D02*
X33699D01*
X31Y53599D02*
X32399Y52199D01*
X29499Y53599D02*
X31D01*
X26799Y53899D02*
X271Y53599D01*
X05199Y53899D02*
X26799D01*
X05899Y59799D02*
X06799Y60699D01*
X05899Y54599D02*
Y59799D01*
X05199Y53899D02*
X05899Y54599D01*
X03849Y53699D02*
Y53799D01*
X03949Y53899*
X05199*
G54D91*
X48749Y3175D03*
X43749D03*
G54D92*
X96099Y65799D03*
X03799Y75099D03*
X96199Y13499D03*
X03899Y03999D03*
G54D93*
X68655Y03729D03*
X71195D03*
X73735D03*
X76275D03*
X78815D03*
X81355D03*
X83895D03*
X86435D03*
X88975D03*
X91515D03*
X94055D03*
X96595D03*
X68655Y06269D03*
X71195D03*
X73735D03*
X76275D03*
X78815D03*
X81355D03*
X83895D03*
X86435D03*
X88975D03*
X91515D03*
X94055D03*
X96595D03*
X68655Y73704D03*
X71195D03*
X73735D03*
X76275D03*
X78815D03*
X81355D03*
X83895D03*
X86435D03*
X88975D03*
X91515D03*
X94055D03*
X96595D03*
X68655Y76244D03*
X71195D03*
X73735D03*
X76275D03*
X78815D03*
X81355D03*
X83895D03*
X86435D03*
X88975D03*
X91515D03*
X94055D03*
X96595D03*
G54D94*
X97604Y47345D03*
X95604D03*
X97604Y49345D03*
X95604D03*
X97604Y51345D03*
X95604D03*
X97604Y53345D03*
X95604D03*
X97604Y55345D03*
X95604D03*
X97604Y57345D03*
X95604D03*
X97604Y59345D03*
X95604D03*
G54D95*
X94299Y40999D03*
X97699D03*
G54D96*
X36499Y14199D03*
Y08199D03*
G54D97*
X41199Y11199D03*
G54D98*
X14249Y46144D03*
G54D99*
X16789Y44874D03*
X14249Y43604D03*
X16789Y42334D03*
X14249Y41064D03*
X16789Y39794D03*
X14249Y38524D03*
X16789Y37254D03*
G54D100*
X07899Y35984D03*
Y47414D03*
G54D101*
X04849Y49824D03*
Y33574D03*
G54D102*
X16299Y30924D03*
X72599Y18499D03*
X74549Y19599D03*
X75799D03*
X75099Y18499D03*
X73299Y19599D03*
X05435Y08799D03*
X03271D03*
X01107D03*
X07599D03*
X09499Y02499D03*
Y04499D03*
Y06499D03*
Y08499D03*
X11807D03*
X13971D03*
X16135D03*
X18299Y06499D03*
X11807D03*
X13971D03*
X16135D03*
X18299Y04499D03*
X11807D03*
X13971D03*
X16135D03*
X18299Y02499D03*
X11807D03*
X13971D03*
X16135D03*
X18299Y08499D03*
X07599Y16899D03*
X01107D03*
X03271D03*
X05435D03*
X07599Y14899D03*
X01107D03*
X03271D03*
X05435D03*
X07599Y12899D03*
X01107D03*
X03271D03*
X05435D03*
X07599Y10899D03*
X01107D03*
X03271D03*
X05435D03*
X68899Y18499D03*
X67699D03*
X67799Y25299D03*
X69299D03*
X21999Y32999D03*
X23499D03*
Y31249D03*
X21999D03*
X10524Y35899D03*
X10699Y38924D03*
X11971Y36924D03*
X14135Y34925D03*
X11971D03*
X16299D03*
X07642Y32924D03*
X09807D03*
X11971D03*
X14135D03*
X16299D03*
Y24924D03*
Y26924D03*
Y22924D03*
Y20924D03*
X18299Y26924D03*
Y24924D03*
Y22924D03*
Y20924D03*
Y18924D03*
Y16924D03*
Y14924D03*
X16299Y16924D03*
X14135Y10924D03*
X11971D03*
X09807D03*
X16299D03*
X14135Y12924D03*
X11971D03*
X09807D03*
X16299D03*
X14135Y14924D03*
X11971D03*
X09807D03*
X16299D03*
X14135Y16924D03*
X11971D03*
X09807D03*
X14135Y18924D03*
X11971D03*
X09807D03*
X07642D03*
X05478D03*
X03314D03*
X16299D03*
X01149D03*
X14135Y20924D03*
X11971D03*
X09807D03*
X07642D03*
X05478D03*
X03314D03*
X01149D03*
X14135Y22924D03*
X11971D03*
X09807D03*
X07642D03*
X05478D03*
X03314D03*
X01149D03*
X14135Y24924D03*
X11971D03*
X09807D03*
X07642D03*
X05478D03*
X03314D03*
X01149D03*
X14135Y26924D03*
X11971D03*
X09807D03*
X07642D03*
X05478D03*
X03314D03*
X01149D03*
X14135Y28924D03*
X11971D03*
X09807D03*
X07642D03*
X05478D03*
X03314D03*
X16299D03*
X01149D03*
X11971Y30924D03*
X09807D03*
X05478D03*
X03314D03*
X01149D03*
X07642D03*
X14135D03*
G54D103*
X646Y77199D03*
X656Y75199D03*
X646Y73199D03*
X656Y71199D03*
Y59199D03*
X626Y77199D03*
X636Y75199D03*
X626Y73199D03*
X636Y71199D03*
X626Y61199D03*
X606Y77199D03*
X616Y75199D03*
X606Y73199D03*
X616Y71199D03*
Y67199D03*
Y63199D03*
X606Y57199D03*
X586Y77199D03*
X596Y75199D03*
X586Y73199D03*
X596Y71199D03*
X586Y65199D03*
Y61199D03*
X596Y59199D03*
X56599Y77199D03*
X57599Y75199D03*
X56599Y73199D03*
X57599Y71199D03*
Y67199D03*
X56599Y65199D03*
X57599Y63199D03*
X56599Y61199D03*
X57599Y59199D03*
X54599Y77199D03*
X55599Y75199D03*
X54599Y73199D03*
X55599Y71199D03*
Y67199D03*
X54599Y65199D03*
X55599Y63199D03*
X54599Y61199D03*
X55599Y59199D03*
X52599Y77199D03*
X53599Y75199D03*
X52599Y73199D03*
X53599Y71199D03*
Y67199D03*
X52599Y65199D03*
X53599Y63199D03*
X52599Y61199D03*
X53599Y59199D03*
X50599Y77199D03*
X51599Y75199D03*
X50599Y73199D03*
X51599Y71199D03*
Y63199D03*
X50599Y61199D03*
X51599Y59199D03*
X48599Y77199D03*
X49599Y75199D03*
X48599Y73199D03*
X49599Y71199D03*
Y67199D03*
Y63199D03*
Y59199D03*
X46599Y77199D03*
X47599Y75199D03*
X46599Y73199D03*
X47599Y71199D03*
Y67199D03*
X46599Y65199D03*
Y61199D03*
X44599Y77199D03*
X45599Y75199D03*
X44599Y73199D03*
X45599Y71199D03*
Y67199D03*
X44599Y65199D03*
X45599Y63199D03*
X44599Y61199D03*
X45599Y59199D03*
X42599Y77199D03*
X43599Y75199D03*
X42599Y73199D03*
X43599Y71199D03*
Y67199D03*
X42599Y65199D03*
X43599Y63199D03*
X42599Y61199D03*
X43599Y59199D03*
X40599Y77199D03*
X41599Y75199D03*
X40599Y73199D03*
X41599Y71199D03*
Y67199D03*
X40599Y65199D03*
X41599Y63199D03*
X40599Y61199D03*
X41599Y59199D03*
X38599Y77199D03*
X39599Y75199D03*
X38599Y73199D03*
X39599Y71199D03*
Y67199D03*
X38599Y65199D03*
X39599Y63199D03*
X38599Y61199D03*
X39599Y59199D03*
X36599Y77199D03*
X37599Y75199D03*
X36599Y73199D03*
X37599Y71199D03*
Y67199D03*
X36599Y65199D03*
X37599Y63199D03*
X36599Y61199D03*
X37599Y59199D03*
X34599Y77199D03*
X35599Y75199D03*
X34599Y73199D03*
X35599Y71199D03*
Y67199D03*
X34599Y65199D03*
X35599Y63199D03*
X34599Y61199D03*
X35599Y59199D03*
X32599Y77199D03*
X33599Y75199D03*
X32599Y73199D03*
X33599Y71199D03*
Y67199D03*
X32599Y65199D03*
X33599Y63199D03*
X32599Y61199D03*
X33599Y59199D03*
X30599Y77199D03*
X31599Y75199D03*
X30599Y73199D03*
X31599Y71199D03*
Y67199D03*
X30599Y65199D03*
X31599Y63199D03*
X30599Y61199D03*
X31599Y59199D03*
X28599Y77199D03*
X29599Y75199D03*
X28599Y73199D03*
X29599Y71199D03*
Y67199D03*
X28599Y65199D03*
X29599Y63199D03*
X28599Y61199D03*
X29599Y59199D03*
X26599Y77199D03*
X27599Y75199D03*
X26599Y73199D03*
X27599Y71199D03*
Y67199D03*
X26599Y65199D03*
X27599Y63199D03*
X26599Y61199D03*
X27599Y59199D03*
X24599Y77199D03*
X25599Y75199D03*
X24599Y73199D03*
X25599Y71199D03*
Y67199D03*
X24599Y65199D03*
X25599Y63199D03*
X24599Y61199D03*
X25599Y59199D03*
X22599Y77199D03*
X23599Y75199D03*
X22599Y73199D03*
X23599Y71199D03*
Y67199D03*
X22599Y65199D03*
X23599Y63199D03*
X22599Y61199D03*
X23599Y59199D03*
X20599Y77199D03*
X21599Y75199D03*
X20599Y73199D03*
X21599Y71199D03*
Y67199D03*
X20599Y65199D03*
X21599Y63199D03*
X20599Y61199D03*
X21599Y59199D03*
X18599Y77199D03*
X19599Y75199D03*
X18599Y73199D03*
X19599Y71199D03*
Y67199D03*
X18599Y65199D03*
X19599Y63199D03*
X18599Y61199D03*
X19599Y59199D03*
X16599Y77199D03*
X17599Y75199D03*
X16599Y73199D03*
X17599Y71199D03*
Y67199D03*
X16599Y65199D03*
X17599Y63199D03*
X16599Y61199D03*
X17599Y59199D03*
X14599Y77199D03*
X15599Y75199D03*
X14599Y73199D03*
X15599Y71199D03*
Y67199D03*
X14599Y65199D03*
X15599Y63199D03*
X14599Y61199D03*
X15599Y59199D03*
X12599Y77199D03*
X13599Y75199D03*
X12599Y73199D03*
X13599Y71199D03*
X12599Y69199D03*
X13599Y63199D03*
X12599Y61199D03*
X13599Y59199D03*
X10599Y77199D03*
X11599Y75199D03*
X10599Y73199D03*
X11599Y71199D03*
X10599Y69199D03*
X11599Y67199D03*
Y63199D03*
X10599Y61199D03*
X11599Y59199D03*
X08599Y77199D03*
X09599Y75199D03*
X08599Y73199D03*
X09599Y71199D03*
X08599Y69199D03*
X09599Y67199D03*
X08599Y65199D03*
X09599Y59199D03*
X07599Y71199D03*
X06599Y69199D03*
X07599Y67199D03*
X06599Y65199D03*
X07599Y63199D03*
Y59199D03*
X05599Y71199D03*
X04599Y69199D03*
X05599Y67199D03*
X04599Y65199D03*
X05599Y63199D03*
X04599Y61199D03*
X02599Y69199D03*
X03599Y67199D03*
X02599Y65199D03*
X03599Y63199D03*
X02599Y61199D03*
X01599Y71199D03*
Y67199D03*
Y63199D03*
G54D104*
X46899Y51299D03*
X56749Y40999D03*
X57249Y40499D03*
X57749Y39999D03*
X58249Y39499D03*
Y40499D03*
X57749Y40999D03*
X57249Y41499D03*
X66433Y28266D03*
X66929Y27799D03*
X43074Y37099D03*
X92249Y11353D03*
X91499D03*
X90749D03*
X90999Y11999D03*
X91999D03*
X91499Y12749D03*
X92499D03*
Y13749D03*
X91499D03*
X90499D03*
Y14749D03*
X91499D03*
X92499D03*
X92749Y15749D03*
X91749D03*
X90749D03*
X85999Y16399D03*
X77749Y27999D03*
X90499Y12999D03*
X77191Y32399D03*
X72999Y34295D03*
X75699Y48699D03*
X37149Y31199D03*
X61599Y11649D03*
X62199Y09749D03*
X78234Y14465D03*
X71999Y21299D03*
X83799Y14999D03*
X78499Y33199D03*
X76899Y30799D03*
X83199Y25799D03*
X82849Y26499D03*
X78599Y32399D03*
X73099Y39199D03*
X71299D03*
X73099Y37499D03*
X70999Y36599D03*
X70199Y33453D03*
Y31945D03*
X85299Y31499D03*
X76799Y32999D03*
X69799Y37049D03*
X69999Y43049D03*
X73999Y49499D03*
X85749Y49699D03*
X88199Y49049D03*
X87349Y45549D03*
Y44441D03*
X87499Y46657D03*
X86849Y46115D03*
X86835Y45007D03*
X91079Y39378D03*
X90699Y40032D03*
X88149Y33549D03*
X83799Y19799D03*
X84599Y20124D03*
Y20899D03*
X83799Y22124D03*
X87799Y15799D03*
X89774Y16074D03*
X87547Y40052D03*
X87349Y42557D03*
X86699Y42199D03*
X85899Y41099D03*
X87499Y27899D03*
X79474Y54449D03*
X86599Y43888D03*
X85499Y41699D03*
X87399Y43299D03*
X77678Y52449D03*
X79603Y52869D03*
X72799Y28299D03*
X78349Y52449D03*
X74633Y52183D03*
X81257Y52399D03*
X66399Y34399D03*
X57945Y34949D03*
X57545Y3364D03*
X63164Y34528D03*
X58126Y35699D03*
X90999Y381D03*
X9355Y45999D03*
X97849Y19799D03*
X96999Y24074D03*
X89949Y254D03*
X85424Y20324D03*
X84599Y21674D03*
X61924Y29624D03*
X70199Y37799D03*
X62649Y07999D03*
X43349Y01799D03*
X46449Y06399D03*
Y13999D03*
X49149Y12299D03*
X55249Y07999D03*
X55549Y10399D03*
X55049Y12399D03*
X56649Y12199D03*
X38999Y34399D03*
X4941Y42009D03*
X43289Y41499D03*
X4681Y40689D03*
X4581Y39689D03*
X45489Y40589D03*
X44089Y42709D03*
X4654Y42634D03*
X47299Y44699D03*
X49699Y37599D03*
X53099Y31199D03*
X54699Y26299D03*
X65899Y28799D03*
X68294Y30949D03*
X62449Y41049D03*
X62599Y37799D03*
X7172Y28199D03*
X66299Y41094D03*
X90999Y33049D03*
X66299Y40322D03*
X65799Y33099D03*
X71004Y28295D03*
X67117Y35549D03*
X66399Y47799D03*
X67058Y34011D03*
X78249Y28499D03*
X63899Y32999D03*
X65567Y34199D03*
X64799Y32999D03*
X66299Y39499D03*
X83249Y28299D03*
X90199Y1897D03*
X92349Y19799D03*
X34199Y30449D03*
X68449Y23899D03*
Y20299D03*
X93449Y34299D03*
X89899Y28549D03*
X86649Y26499D03*
X88249Y24699D03*
X47799Y52199D03*
X06799Y60699D03*
X04499Y59949D03*
X71849Y68599D03*
X69149D03*
X66649D03*
X64099D03*
X83299Y32399D03*
X87499Y32999D03*
Y36899D03*
Y38699D03*
X79799Y48699D03*
X78399D03*
X76599D03*
X74799D03*
X70699Y47499D03*
Y41699D03*
Y39999D03*
X70199Y34999D03*
X72799Y32399D03*
X70399Y26999D03*
X95376Y18576D03*
X81199Y48499D03*
X60166Y02899D03*
X59233D03*
X61099D03*
X58299D03*
X50899D03*
X53699D03*
X51833D03*
X52766D03*
X60149Y09099D03*
X59474D03*
X58749D03*
X58249Y10549D03*
X58274Y09824D03*
X60174Y08424D03*
X59474D03*
X51999Y08474D03*
X52699D03*
X508Y09874D03*
X50774Y10599D03*
X51274Y09149D03*
X51999D03*
X52674D03*
X9095Y46549D03*
X91299Y23399D03*
X93582Y48899D03*
X93599Y47499D03*
X93194Y32194D03*
X28104Y52194D03*
X28034Y53464D03*
X45699Y35399D03*
X46799D03*
X47299Y35999D03*
X46199D03*
X59499Y37699D03*
X52099Y44299D03*
X48999Y47399D03*
X40899Y40199D03*
X48999Y37125D03*
X52499Y29499D03*
X54899Y25199D03*
X58599Y37299D03*
X36299Y53499D03*
Y52199D03*
Y55999D03*
X42149Y45849D03*
X41608Y45397D03*
X41399Y44743D03*
X59899Y51899D03*
X62599D03*
X61749D03*
X62099Y52599D03*
X60824Y51899D03*
G54D105*
X38124Y37799D03*
Y46499D03*
X46099Y48199D03*
X04591Y57964D03*
X38124Y44199D03*
X45981Y45799D03*
X04591Y55714D03*
X32749Y39024D03*
X38124Y40299D03*
X26499Y39024D03*
Y45374D03*
M02*